<?xml version="1.0" encoding="UTF-8"?> <svg xmlns="http://www.w3.org/2000/svg" width="27" height="27" viewBox="0 0 27 27" fill="none"><path d="M8.5 14.125L11.625 17.25L18.5 10.375" stroke="#008AC5" stroke-width="1.5" stroke-linecap="round"></path><path d="M13.5 26C15.1331 26 16.5224 24.956 17.037 23.4991C17.1738 23.1116 17.6986 22.8942 18.0694 23.0714C19.4634 23.7378 21.184 23.4937 22.3388 22.3389C23.4936 21.1841 23.7378 19.4635 23.0714 18.0694C22.8941 17.6987 23.1115 17.1738 23.499 17.037C24.956 16.5224 26 15.1331 26 13.5C26 11.8669 24.956 10.4776 23.4991 9.96305C23.1116 9.82621 22.8942 9.30136 23.0714 8.93062C23.7378 7.53655 23.4937 5.81597 22.3389 4.66117C21.1841 3.50637 19.4635 3.26219 18.0694 3.92862C17.6987 4.10585 17.1738 3.88844 17.037 3.50096C16.5224 2.04397 15.1331 1 13.5 1C11.8669 1 10.4776 2.04396 9.96305 3.50094C9.82622 3.88841 9.30137 4.10581 8.93062 3.92858C7.53655 3.26215 5.81597 3.50634 4.66117 4.66114C3.50637 5.81594 3.26219 7.53652 3.92862 8.9306C4.10585 9.30134 3.88844 9.82621 3.50096 9.96304C2.04397 10.4776 1 11.8669 1 13.5C1 15.1331 2.04396 16.5224 3.50094 17.0369C3.88841 17.1738 4.10581 17.6986 3.92858 18.0694C3.26216 19.4634 3.50634 21.184 4.66114 22.3388C5.81594 23.4936 7.53652 23.7378 8.93059 23.0714C9.30134 22.8941 9.82621 23.1115 9.96304 23.499C10.4776 24.956 11.8669 26 13.5 26Z" stroke="#008AC5" stroke-width="1.5" stroke-linecap="round"></path></svg> 