<?xml version="1.0" encoding="UTF-8"?> <svg xmlns="http://www.w3.org/2000/svg" width="41" height="41" viewBox="0 0 41 41" fill="none"><path fill-rule="evenodd" clip-rule="evenodd" d="M18.9593 0.0170742C15.8798 0.377356 13.9497 0.900169 11.5907 2.01294C10.9923 2.29517 10.3752 2.54691 10.2192 2.57226C9.83165 2.63523 7.5787 3.75346 7.36203 3.99044C7.16397 4.20696 7.016 4.55304 7.016 4.79981C7.016 4.90538 6.59894 5.39482 5.87377 6.14017C4.20612 7.85422 3.1741 9.28267 2.18938 11.2399C1.13477 13.3362 0.535197 15.2362 0.151007 17.6993C-0.0661363 19.0911 -0.0457766 22.0895 0.190685 23.5556C0.54698 25.7646 1.11064 27.5407 2.09047 29.542C4.07282 33.5906 7.43954 36.9591 11.4647 38.9211C13.4971 39.9119 15.2973 40.4798 17.4764 40.8178C18.9212 41.0419 21.7945 41.0632 23.1675 40.86C27.1025 40.2775 30.4265 38.85 33.3668 36.4795C34.3882 35.656 36.0787 33.9132 36.8403 32.8984C39.4444 29.4291 40.8263 25.4888 40.9763 21.1057C41.0205 19.8172 41.0101 19.6255 40.8825 19.3563C40.6664 18.9004 40.3049 18.6671 39.6666 18.5714C38.1125 18.3387 36.8395 17.7104 35.8187 16.6723C35.2497 16.0937 34.845 15.4958 34.4285 14.6184C33.8971 13.4989 33.3349 13.1949 32.0959 13.3571C31.2954 13.4619 30.0533 13.4701 29.5558 13.3738C29.2966 13.3237 29.122 13.2141 28.8521 12.9323C28.366 12.4245 27.8925 12.2264 27.131 12.2122C26.5679 12.2017 26.4979 12.1804 26.129 11.9072C25.6584 11.5585 24.8675 10.7528 24.4668 10.214C24.0414 9.64183 23.4731 8.44057 23.2829 7.71158C23.1908 7.3586 23.0886 6.65833 23.0558 6.1555C22.9993 5.29342 23.2361 3.39583 23.2361 3.39583L22.6304 3.31479L22.3798 2.96695C22.3798 2.96695 21.8449 5.23173 21.8449 5.94363C21.8449 7.67516 22.4711 9.52013 23.5572 10.9889C23.7905 11.3042 24.3218 11.8839 24.7379 12.277L25.4944 12.9917L25.2728 13.4315C24.9028 14.1657 24.9834 15.0611 25.478 15.7101C25.89 16.2508 26.3857 16.5132 27.0793 16.5577C27.5606 16.5886 27.7355 16.5639 28.0784 16.4162C28.7232 16.1385 29.2212 15.5366 29.373 14.8514L29.4263 14.6108L30.4249 14.6384C30.9742 14.6535 31.7211 14.6223 32.0849 14.569C32.9275 14.4454 33.0367 14.5093 33.4644 15.376C33.6381 15.7282 33.8349 16.0944 33.9018 16.1899C34.016 16.3531 34.0042 16.3843 33.7053 16.7087C33.3423 17.103 33.2939 17.4082 33.5509 17.6842C33.7961 17.9476 34.1637 17.9157 34.4861 17.6031L34.7507 17.3464L35.0509 17.632C36.1992 18.724 37.6744 19.464 39.1922 19.709L39.8241 19.8111L39.7727 21.1418C39.6052 25.4823 38.1769 29.3285 35.4943 32.6637C34.6878 33.6663 33.1677 35.1406 32.1553 35.9023C30.0977 37.45 27.7893 38.5779 25.4181 39.1941C21.5253 40.2057 17.601 40.0136 13.7926 38.6251L13.0977 38.3718L13.5436 37.9207C14.0545 37.404 14.1239 37.1071 13.8041 36.8064C13.4676 36.4901 13.2327 36.5706 12.5491 37.2364L11.9285 37.8408L11.1756 37.4117C9.38205 36.3895 8.1971 35.4889 6.80783 34.092C2.53454 29.7953 0.528624 23.7958 1.3669 17.8191C1.47327 17.0607 1.55727 16.6196 1.76993 15.7029L1.81433 15.5115L2.03492 15.723C2.31579 15.9923 2.67561 16.0028 2.91408 15.7488C3.19975 15.4444 3.13884 15.196 2.649 14.6664L2.20958 14.1914L2.60604 13.2103C3.56535 10.8359 4.88448 8.85019 6.7918 6.90935L7.73781 5.94668L8.31637 6.57988C8.9048 7.22391 9.22927 7.4308 9.65066 7.4308C9.98908 7.4308 12.5623 6.13745 12.7283 5.88402C13.1177 5.28933 13.0151 4.88525 12.2638 4.05349C11.9346 3.68888 11.6651 3.36638 11.6651 3.33678C11.6651 3.21773 13.3722 2.50318 14.6042 2.10664C16.5916 1.46694 18.1928 1.22114 20.4021 1.21681C21.3059 1.21496 22.2494 1.2428 22.4988 1.2785L22.9522 1.34356L22.6304 2.03083C22.3594 2.60956 22.3798 2.96695 22.3798 2.96695L22.6304 3.31479L23.2361 3.39583C23.4766 2.83426 24.1112 1.86694 24.1165 1.31348C24.1226 0.673459 23.6934 0.247234 22.9213 0.126498C22.4069 0.0460347 19.4174 -0.0365147 18.9593 0.0170742ZM37.2231 0.723438C36.833 0.862945 36.5199 1.11717 36.2549 1.50986C35.6809 2.36047 35.9605 3.53694 36.8705 4.09946C37.2126 4.31093 37.3363 4.34182 37.8302 4.33933C38.4746 4.33604 38.7587 4.21787 39.1899 3.77352C39.4883 3.46594 39.7198 2.90847 39.7198 2.49709C39.7198 1.25596 38.3853 0.307883 37.2231 0.723438ZM38.2831 2.04968C38.4244 2.19104 38.5174 2.36873 38.5174 2.49709C38.5174 2.75637 38.1206 3.17898 37.8771 3.17898C37.4902 3.17898 37.1614 2.87381 37.1573 2.51097C37.154 2.21591 37.5449 1.81519 37.8361 1.81519C37.9644 1.81519 38.1419 1.90833 38.2831 2.04968ZM28.6679 2.83483C28.283 3.02463 28.1568 3.27485 27.6089 4.93579C27.0897 6.50936 27.0723 6.67374 27.3724 7.16615C27.608 7.55274 27.9079 7.66353 29.4089 7.91799C31.0431 8.19517 31.4136 8.20728 31.7618 7.99477C32.0977 7.78972 33.9027 5.52647 34.0243 5.15784C34.2078 4.60142 33.874 3.88976 33.3277 3.67251C32.879 3.4941 29.535 2.69773 29.242 2.69949C29.0753 2.70045 28.8169 2.76142 28.6679 2.83483ZM11.6611 5.19242C11.6633 5.21881 11.2051 5.45732 10.6431 5.72245L9.62108 6.20451L8.97983 5.52278C8.62714 5.1479 8.33192 4.81906 8.32375 4.79219C8.31557 4.76531 8.76645 4.52143 9.3257 4.25028L10.3425 3.75723L10.9998 4.45084C11.3614 4.8323 11.659 5.16603 11.6611 5.19242ZM31.0057 4.30363C31.8968 4.52504 32.6864 4.73266 32.7602 4.76491C32.8708 4.81321 32.7475 5.00734 32.0601 5.86645C31.6012 6.44005 31.1695 6.92131 31.1009 6.93591C30.9946 6.95861 28.4129 6.56078 28.3586 6.51337C28.3434 6.50013 29.025 4.40736 29.1768 4.00127C29.1974 3.94616 29.2528 3.90099 29.2999 3.90099C29.347 3.90099 30.1146 4.08213 31.0057 4.30363ZM36.4048 7.26907C36.0695 7.37481 35.9005 7.55154 35.3792 8.34205C34.9766 8.95239 34.9105 9.10546 34.9107 9.42506C34.9109 9.65057 34.9717 9.89702 35.0649 10.05C35.2071 10.2833 36.8319 11.6544 37.5206 12.1222C38.0565 12.4861 38.8539 12.341 39.197 11.8169C39.3572 11.5722 40.0412 9.88635 40.1239 9.53272C40.158 9.38624 40.1495 9.13706 40.1048 8.97493C39.9663 8.4729 39.6199 8.22244 38.3806 7.72779C37.1715 7.24525 36.7734 7.15291 36.4048 7.26907ZM15.0445 8.44033C14.9414 8.51333 14.6811 8.93306 14.4661 9.373C14.0992 10.124 14.0815 10.1885 14.1785 10.4264C14.2952 10.7129 14.5828 10.8497 14.9002 10.77C15.0703 10.7273 15.1905 10.5601 15.5127 9.91763C15.733 9.47809 15.9134 9.01504 15.9134 8.88869C15.9134 8.46848 15.3879 8.19733 15.0445 8.44033ZM37.9054 8.8347C38.4622 9.05532 38.9179 9.2712 38.918 9.31436C38.9183 9.43052 38.2436 11.12 38.1968 11.1203C38.1596 11.1206 36.3219 9.67111 36.1608 9.51451C36.0832 9.43902 36.7351 8.37125 36.8349 8.41064C36.8669 8.42324 37.3487 8.61409 37.9054 8.8347ZM19.0394 10.9381C18.7799 11.0318 18.6387 11.2325 18.6387 11.5073C18.6387 11.7432 18.7142 11.8641 19.1068 12.257C19.48 12.6305 19.6263 12.7255 19.8282 12.7255C20.1605 12.7255 20.4021 12.4796 20.4021 12.1414C20.4021 11.9267 20.3172 11.7953 19.9412 11.4278C19.4779 10.9751 19.2619 10.8578 19.0394 10.9381ZM8.80557 12.246C7.11683 12.5888 6.47302 14.6907 7.67689 15.9313C7.82037 16.0792 8.13121 16.2893 8.36751 16.3982C8.94929 16.6662 9.78292 16.6279 10.3281 16.3081C11.5783 15.5749 11.8015 13.819 10.7704 12.8299C10.2731 12.353 9.46373 12.1125 8.80557 12.246ZM9.63847 13.5013C10.6165 13.9658 10.2821 15.3729 9.19361 15.3729C8.64013 15.3729 8.11863 14.7385 8.248 14.2226C8.31822 13.9427 8.61367 13.603 8.89286 13.4813C9.21789 13.3397 9.3031 13.342 9.63847 13.5013ZM27.7765 13.5967C27.8867 13.6748 28.0447 13.8752 28.1275 14.0421C28.2563 14.3017 28.2646 14.3907 28.185 14.6566C27.938 15.4818 26.8198 15.6257 26.3847 14.8883C25.856 13.9928 26.9294 12.9967 27.7765 13.5967ZM18.3982 14.84C18.2439 14.898 17.4684 15.3438 16.6748 15.8305C15.0036 16.8558 14.7735 17.0904 14.7787 17.7646C14.7816 18.1305 15.55 21.3399 15.7675 21.8942C15.894 22.2167 16.4385 22.653 16.7883 22.7122C17.2203 22.7852 17.583 22.6331 19.0077 21.7817C20.5225 20.8763 21.0012 20.4562 21.0825 19.961C21.1525 19.5343 20.7845 18.336 20.6803 17.8496C20.5761 17.3632 20.52 16.8869 20.3196 16.3655L19.568 18.2626L19.7453 18.9902C19.8429 19.3904 19.9035 19.7488 19.8802 19.7866C19.8569 19.8244 19.2048 20.2413 18.4311 20.7132C17.4104 21.3358 17.0004 21.547 16.9365 21.4831C16.8172 21.3636 15.9192 17.819 15.9829 17.7188C16.0108 17.675 16.6622 17.2564 17.4304 16.7887L18.8272 15.9384L19.568 18.2626L20.3196 16.3655C20.3196 16.3655 20.2272 15.8965 20.0289 15.4781C19.7719 14.9362 18.9732 14.6237 18.3982 14.84ZM30.4428 20.1115C29.5751 20.4534 28.9637 21.3332 28.9133 22.3122C28.8144 24.2373 30.8296 25.5524 32.5347 24.6755C33.4108 24.2248 33.8938 23.4286 33.8951 22.4325C33.8964 21.4529 33.3921 20.6216 32.5311 20.1844C31.9921 19.9108 31.0369 19.8773 30.4428 20.1115ZM4.75767 20.9502C4.07522 21.2985 3.80974 21.5358 3.80974 21.7978C3.80974 21.9824 4.09438 22.3241 4.291 22.3756C4.49853 22.4299 6.17003 21.6211 6.24289 21.4312C6.40665 21.004 6.14077 20.5846 5.71033 20.5915C5.56877 20.5936 5.1401 20.7551 4.75767 20.9502ZM32.1131 21.3301C32.4131 21.5296 32.7462 22.1096 32.7462 22.4325C32.7462 22.7182 32.428 23.3147 32.1789 23.4961C31.7545 23.8051 31.047 23.7958 30.6083 23.4754C29.8953 22.9547 29.9629 21.7678 30.731 21.3221C31.1372 21.0863 31.7519 21.0898 32.1131 21.3301ZM10.4217 22.0324C10.1446 22.3389 10.2304 22.6359 10.7474 23.1588C11.1328 23.5486 11.2673 23.6358 11.4822 23.6358C11.8202 23.6358 12.0658 23.3941 12.0658 23.0614C12.0658 22.8594 11.9709 22.713 11.5977 22.3394C11.2051 21.9465 11.0843 21.8709 10.8487 21.8709C10.6689 21.8709 10.5151 21.9291 10.4217 22.0324ZM24.5702 22.0314C24.2712 22.3307 24.3565 22.6453 24.878 23.1673C25.2706 23.5603 25.3914 23.6358 25.6271 23.6358C25.9715 23.6358 26.2001 23.4096 26.2001 23.0691C26.2001 22.7033 25.3619 21.8709 24.9935 21.8709C24.8374 21.8709 24.6654 21.9362 24.5702 22.0314ZM19.5605 26.7357C18.749 27.1453 18.6387 27.2498 18.6387 27.6098C18.6387 27.8733 18.8008 28.0734 19.0843 28.1595C19.254 28.211 20.6221 27.6001 20.9031 27.3473C21.1133 27.1581 21.0907 26.6464 20.8652 26.4883C20.5893 26.2948 20.3403 26.342 19.5605 26.7357ZM34.2029 26.5491C33.9244 26.8459 33.9785 27.1189 34.4069 27.5772C34.8997 28.1045 35.1425 28.2311 35.4532 28.1226C35.6828 28.0426 35.8723 27.7682 35.8723 27.5159C35.8723 27.448 35.6502 27.1609 35.3786 26.8779C34.8169 26.2924 34.5215 26.2098 34.2029 26.5491ZM10.4775 26.6664C10.2942 26.7576 9.9308 27.1856 9.30703 28.0451C8.8095 28.7306 8.36102 29.3704 8.31036 29.4668C8.10131 29.8648 8.24031 30.5529 8.5946 30.8738C8.85062 31.1057 11.2527 31.9129 11.6937 31.9153C12.2919 31.9184 12.3622 31.8502 13.7609 29.9068C14.3128 29.14 14.4209 28.9382 14.4518 28.6165C14.4919 28.198 14.3715 27.885 14.0573 27.592C13.833 27.3827 11.3501 26.5216 10.9924 26.529C10.8553 26.5318 10.6237 26.5937 10.4775 26.6664ZM12.2262 28.1298C12.7772 28.3208 13.2409 28.4867 13.2567 28.4984C13.2981 28.5294 11.746 30.6504 11.6587 30.6821C11.5772 30.7117 9.57683 30.066 9.4804 29.9791C9.44706 29.9491 9.57675 29.7098 9.76849 29.4476C9.96022 29.1853 10.3235 28.688 10.5758 28.3424C10.8282 27.9969 11.0773 27.7295 11.1294 27.7483C11.1816 27.7671 11.6751 27.9388 12.2262 28.1298ZM26.8386 27.9647C26.4635 28.1936 26.3483 28.4899 26.256 29.4633C26.0951 31.1624 26.162 31.635 26.6046 31.9253C26.9989 32.1838 29.2614 33.0407 29.5539 33.0422C29.9224 33.0442 30.3324 32.8101 30.5181 32.4918C30.6812 32.2123 30.8844 30.038 30.7914 29.5673L30.1789 29.0497H29.6486C29.6486 29.2276 29.6267 29.9574 29.5753 30.7551C29.5447 31.2297 29.4972 31.6593 29.4697 31.7097C29.4356 31.7723 29.0929 31.6715 28.3891 31.3917L27.3586 30.9821L27.4158 30.0566C27.4472 29.5476 27.4864 29.1087 27.5028 29.0813C27.5193 29.0539 27.6401 29.01 27.7714 28.9837C28.1046 29.0137 28.386 29.0323 28.6158 29.0438C29.1342 29.0695 29.3907 29.0587 29.3907 29.0587L29.6486 29.0497H30.1789L30.7914 29.5673L30.8109 28.8265L30.7914 28.3051C30.7914 28.3051 30.6288 27.9812 30.3299 27.9441C29.3155 27.8181 27.0613 27.8287 26.8386 27.9647ZM20.0322 31.6274C19.0338 31.9818 18.4432 33.1152 18.6767 34.2284C18.9015 35.2993 20.1464 36.0825 21.2361 35.8385C22.6257 35.5272 23.3615 34.0895 22.7998 32.7829C22.3645 31.7701 21.1081 31.2456 20.0322 31.6274ZM21.3083 32.8505C21.432 32.9321 21.5875 33.0766 21.654 33.1716C21.8167 33.404 21.8144 33.937 21.6496 34.1886C21.478 34.4509 21.0604 34.7061 20.8029 34.7061C20.5454 34.7061 20.1278 34.4509 19.9562 34.1886C19.7914 33.937 19.7891 33.404 19.9518 33.1716C20.1433 32.898 20.4984 32.7021 20.8029 32.7021C20.9572 32.7021 21.1846 32.7688 21.3083 32.8505ZM25.2254 35.534C24.9089 35.8713 24.9889 36.1456 25.5652 36.6994C25.848 36.9712 26.1349 37.1935 26.2027 37.1935C26.4548 37.1935 26.7289 37.0039 26.8089 36.7741C26.9173 36.4632 26.7908 36.2202 26.2639 35.727C25.7977 35.2904 25.5052 35.2361 25.2254 35.534Z" fill="#008AC5"></path></svg> 