<svg width="33" height="31" viewBox="0 0 33 31" fill="none" xmlns="http://www.w3.org/2000/svg">
<path d="M31.75 23.2083V23.9583C32.1642 23.9583 32.5 23.6225 32.5 23.2083H31.75ZM31.75 1H32.5C32.5 0.585786 32.1642 0.25 31.75 0.25V1ZM18.0833 23.2083V22.4583C17.9353 22.4583 17.7905 22.5022 17.6673 22.5843L18.0833 23.2083ZM7.83333 30.0417H7.08333C7.08333 30.3183 7.23557 30.5724 7.47944 30.7029C7.72331 30.8334 8.01922 30.8191 8.24936 30.6657L7.83333 30.0417ZM7.83333 23.2083H8.58333C8.58333 22.7941 8.24755 22.4583 7.83333 22.4583V23.2083ZM1 23.2083H0.25C0.25 23.6225 0.585786 23.9583 1 23.9583L1 23.2083ZM1 1V0.25C0.585786 0.25 0.25 0.585786 0.25 1L1 1ZM32.5 23.2083V1H31V23.2083H32.5ZM18.0833 23.9583H31.75V22.4583H18.0833V23.9583ZM8.24936 30.6657L18.4994 23.8324L17.6673 22.5843L7.41731 29.4176L8.24936 30.6657ZM7.08333 23.2083V30.0417H8.58333V23.2083H7.08333ZM1 23.9583H7.83333V22.4583H1V23.9583ZM0.25 1V23.2083H1.75V1H0.25ZM31.75 0.25H1V1.75H31.75V0.25Z" fill="white"/>
</svg>
