<svg width="22" height="20" viewBox="0 0 22 20" fill="none" xmlns="http://www.w3.org/2000/svg">
<path d="M21.1176 15.5294V16.2794C21.5319 16.2794 21.8676 15.9436 21.8676 15.5294H21.1176ZM21.1176 1H21.8676C21.8676 0.585786 21.5319 0.25 21.1176 0.25V1ZM10.676 15.5294V14.7794C10.5279 14.7794 10.3832 14.8232 10.26 14.9054L10.676 15.5294ZM5.47065 18.9996H4.72065C4.72065 19.2762 4.87289 19.5304 5.11676 19.6609C5.36062 19.7914 5.65653 19.7771 5.88667 19.6237L5.47065 18.9996ZM5.47065 15.5294H6.22065C6.22065 15.1152 5.88486 14.7794 5.47065 14.7794V15.5294ZM1 15.5294H0.25C0.25 15.9436 0.585786 16.2794 1 16.2794L1 15.5294ZM1 1V0.25C0.585786 0.25 0.25 0.585786 0.25 1L1 1ZM21.8676 15.5294V1H20.3676V15.5294H21.8676ZM10.676 16.2794H21.1176V14.7794H10.676V16.2794ZM5.88667 19.6237L11.092 16.1534L10.26 14.9054L5.05462 18.3756L5.88667 19.6237ZM4.72065 15.5294V18.9996H6.22065V15.5294H4.72065ZM1 16.2794H5.47065V14.7794H1V16.2794ZM0.25 1V15.5294H1.75V1H0.25ZM21.1176 0.25H1V1.75H21.1176V0.25Z" fill="#008AC5"/>
</svg>
