<svg width="46" height="35" viewBox="0 0 46 35" fill="none" xmlns="http://www.w3.org/2000/svg">
<g clip-path="url(#clip0)">
<path d="M24.4708 16.6688L24.8838 16.24L23.4382 14.7393H18.9983V15.3288H23.1801L24.4708 16.6688Z" fill="#2E384C"/>
<path d="M24.6433 15.7925L38.1504 29.8154L37.3838 30.6113L23.8767 16.5884L24.6433 15.7925Z" fill="#2E384C"/>
<path d="M43.7902 25.5087L44.1553 25.8877L39.0445 31.1937L38.6794 30.8147L43.7902 25.5087Z" fill="#2E384C"/>
<path d="M39.119 15.9776L46.0186 23.1406L39.119 30.3037L32.2194 23.1406L39.119 15.9776Z" fill="#F9BC64"/>
<path d="M32.1815 8.82426L39.0811 15.9873L32.1815 23.1503L25.2819 15.9873L32.1815 8.82426Z" fill="#FFCE80"/>
<path d="M35.5489 14.0886L37.1182 15.7188L36.6435 16.2113L35.0742 14.5812L35.5489 14.0886Z" fill="#454545"/>
<path d="M34.8975 14.7392L35.6719 13.8816L34.7942 13.7744L34.8975 14.7392Z" fill="#454545"/>
<path d="M34.151 15.5266L35.7207 17.1562L35.2461 17.6489L33.6764 16.0193L34.151 15.5266Z" fill="#454545"/>
<path d="M33.506 16.1329L34.332 15.3289L33.4027 15.2217L33.506 16.1329Z" fill="#454545"/>
<path d="M37.4874 15.7128L37.6699 15.9023L35.4796 18.1763L35.2971 17.9868L37.4874 15.7128Z" fill="#454545"/>
<path d="M42.4361 21.2102L44.0059 22.8398L43.5313 23.3325L41.9615 21.7029L42.4361 21.2102Z" fill="#454545"/>
<path d="M41.7658 21.8682L42.5918 21.0642L41.7141 20.957L41.7658 21.8682Z" fill="#454545"/>
<path d="M41.0377 22.6457L42.6074 24.2754L42.1328 24.7681L40.5631 23.1384L41.0377 22.6457Z" fill="#454545"/>
<path d="M40.4238 23.3154L41.1982 22.4578L40.3206 22.3506L40.4238 23.3154Z" fill="#454545"/>
<path d="M44.337 22.871L44.5195 23.0605L42.3292 25.3345L42.1467 25.145L44.337 22.871Z" fill="#454545"/>
<path d="M9.29503 5.68164C9.29503 5.68164 8.88201 7.6648 8.57224 9.75515C8.41736 10.8271 9.14015 17.0982 9.14015 17.0982C9.14015 17.0982 12.341 12.8103 12.2378 11.5775C12.0313 9.00476 11.102 8.79037 10.689 8.03999C10.5857 7.82559 10.7406 6.11043 10.7406 6.11043L9.29503 5.68164Z" fill="#EAA563"/>
<path d="M8.93212 7.71777C8.93212 7.71777 9.70653 7.77137 10.3777 7.82497C10.9972 7.87857 11.5651 8.84335 11.5651 8.84335C11.5651 8.84335 12.8042 11.5769 12.7009 12.2737C12.6493 12.4881 12.5977 12.9705 12.4944 13.4528C12.1846 15.1144 11.4619 16.6688 10.4293 18.0087C9.70653 19.1343 9.75816 18.2767 8.46748 18.2767L6.40238 17.0976C6.35075 17.0976 6.35075 10.3977 8.93212 7.71777Z" fill="#00B0E4"/>
<path d="M13.0112 3.59161C13.1661 2.78762 12.4433 1.66205 11.5656 1.50125L11.2042 1.44766C10.3266 1.28686 8.93264 1.93004 8.77775 2.73403L8.6745 4.98517C8.62287 5.89635 10.8428 6.96833 11.7205 7.39712C12.7014 7.34352 12.5982 5.68196 12.9079 4.82438L13.0112 3.59161Z" fill="#FCCA9B"/>
<path d="M12.4937 5.68154L12.7518 4.23438L13.1648 5.46715C13.2165 5.68154 13.0099 5.84234 12.8034 5.78874L12.4937 5.68154Z" fill="#FCCA9B"/>
<path d="M12.9077 2.35779C12.9077 2.35779 13.424 2.89377 12.8045 3.16177C12.2365 3.42976 11.7203 3.00097 11.617 3.48336C11.3073 4.71613 10.4812 5.09132 10.4296 5.25212C10.4296 5.35932 9.96495 5.46651 9.75844 6.0025C9.65518 6.2705 9.24216 6.3241 9.08728 6.0561C8.67426 5.35932 7.4352 4.71613 7.74497 3.05457C7.74497 3.05457 8.57101 0.642625 11.1524 1.28581L11.3589 1.33941C12.3398 1.5538 12.9077 2.35779 12.9077 2.35779Z" fill="#082238"/>
<path d="M10.9972 4.6626C11.0488 4.341 10.8423 4.01941 10.4809 3.96581C10.1195 3.91221 10.0163 4.18021 9.91302 4.5554C9.86139 4.7162 10.0679 5.46658 10.2744 5.52018L10.7907 5.57378L11.0488 4.87699L10.9972 4.6626Z" fill="#FCCA9B"/>
<path d="M7.74695 3.2157L13.2195 3.53729L13.2711 3.00131C13.3743 1.44694 12.1869 0.106972 10.6897 0.0533736H10.6381C9.14089 -0.053824 7.85021 1.17895 7.79858 2.73331L7.74695 3.2157Z" fill="#008AC5"/>
<path d="M15.2827 3.80507C15.2827 3.80507 15.3344 4.01946 14.8181 4.12666C14.3535 4.28746 13.8888 4.01946 13.7339 4.01946C13.579 3.96587 12.3916 3.48348 12.3916 3.48348L13.2693 3.05469L15.2827 3.80507Z" fill="#008AC5"/>
<path d="M17.9153 14.0429L13.8367 12.0062C13.8367 12.0062 11.9265 9.70141 11.72 9.32622C11.4619 8.79023 10.9456 8.46864 10.3777 8.41504C10.3777 8.41504 10.2228 8.41504 10.1196 8.41504C9.29353 8.52224 8.93213 10.023 9.34515 10.7734C10.5326 13.1317 12.8042 14.3645 12.8042 14.3645C13.0107 14.6325 18.0186 15.8653 18.0186 15.8653L17.9153 14.0429Z" fill="#52C3F1"/>
<path d="M18.7412 16.9374L17.8636 15.919V14.0967L19.1543 14.6863C20.4966 15.3831 20.4449 16.5086 20.4449 16.5086C20.4966 16.7766 19.051 16.8302 18.7412 16.9374Z" fill="#FCCA9B"/>
<path d="M-0.00077033 30.8189L1.13503 32.6949C1.4448 33.1773 1.90944 33.5524 2.42572 33.7132L2.73548 33.8204L3.40664 34.0348C3.66477 34.142 3.92291 33.874 3.87128 33.5524C3.81966 33.1773 3.56152 32.8021 3.20013 32.5877L3.09687 32.5341V31.4621V30.8725L1.70293 29.2109L-0.00077033 30.8189Z" fill="#442332"/>
<path d="M12.1315 32.4805L11.7185 34.1956C11.6153 34.6244 11.925 34.9996 12.338 34.9996H16.365C16.7264 34.9996 16.9845 34.6244 16.9329 34.2492C16.8812 34.0348 16.7264 33.874 16.5199 33.8204L15.1775 33.4452L14.4548 32.4805H12.1315Z" fill="#442332"/>
<path d="M8.82659 25.9414L10.6335 27.0134L11.7177 32.9628L14.4023 32.4805L13.8344 25.8878L10.3754 18.0088L8.82659 25.9414Z" fill="#0A6EA9"/>
<path d="M1.7016 29.2111L3.09554 30.8726V31.4622L3.30205 31.8374L8.56804 27.3351L8.82618 25.9416L10.375 18.0625L6.34806 17.1514L5.93504 18.4377C5.83179 19.2417 5.88342 20.0457 6.0383 20.8497L5.57365 25.888L1.7016 29.2111Z" fill="#008AC5"/>
<path d="M1.70274 29.2109L3.09668 31.4621L3.04505 30.8725L1.70274 29.2109Z" fill="#414E68"/>
<path d="M34.5895 31.1403C34.5895 32.7483 35.8802 34.0882 37.429 34.0882C38.9779 34.0882 40.2686 32.7483 40.2686 31.1403C40.2686 29.5323 38.9779 28.1924 37.429 28.1924C35.8286 28.1924 34.5895 29.5323 34.5895 31.1403Z" fill="#2E384C"/>
<path d="M35.7766 31.1401C35.7766 32.0513 36.4994 32.8016 37.3771 32.8016C38.2548 32.8016 38.9775 32.0513 38.9775 31.1401C38.9775 30.2289 38.2548 29.4785 37.3771 29.4785C36.4994 29.4785 35.7766 30.2289 35.7766 31.1401Z" fill="#EBEBED"/>
</g>
<defs>
<clipPath id="clip0">
<rect width="46" height="35" fill="white" transform="matrix(-1 0 0 1 46.001 0)"/>
</clipPath>
</defs>
</svg>
