<svg width="17" height="22" fill="none" xmlns="http://www.w3.org/2000/svg"><path d="M8.86 1C4.526 1 1 4.526 1 8.86c0 .54.055 1.078.163 1.601a.59.59 0 00.012.082 17.15 17.15 0 006.588 10.089 1.843 1.843 0 002.071.091l.243-.178a17.183 17.183 0 006.448-9.91.548.548 0 00.012-.08c.122-.55.184-1.12.184-1.695C16.72 4.526 13.194 1 8.86 1zm6.513 9.37a.582.582 0 00-.013.08 16.001 16.001 0 01-5.985 9.15l-.203.149a.668.668 0 01-.707-.062A15.98 15.98 0 012.34 10.36a.598.598 0 00-.011-.071A6.69 6.69 0 018.86 2.177a6.691 6.691 0 016.513 8.193z" fill="#008AC5" stroke="#008AC5" stroke-width=".2"/><path d="M8.86 5.496A3.368 3.368 0 005.496 8.86a3.367 3.367 0 003.364 3.363 3.368 3.368 0 003.364-3.363A3.368 3.368 0 008.86 5.496zm0 5.55A2.19 2.19 0 016.673 8.86 2.19 2.19 0 018.86 6.672a2.19 2.19 0 012.188 2.188 2.19 2.19 0 01-2.188 2.187z" fill="#008AC5"/></svg>