<svg width="17" height="25" viewBox="0 0 17 25" fill="none" xmlns="http://www.w3.org/2000/svg">
<path d="M8.33333 23L7.79023 23.5172L8.33333 24.0875L8.87644 23.5172L8.33333 23ZM8.33333 23C8.87644 23.5172 8.87658 23.5171 8.87675 23.5169C8.87684 23.5168 8.87704 23.5166 8.87723 23.5164C8.87761 23.516 8.87809 23.5155 8.87869 23.5149C8.87989 23.5136 8.88153 23.5119 8.8836 23.5097C8.88774 23.5053 8.89363 23.4991 8.9012 23.491C8.91634 23.4749 8.93823 23.4514 8.9664 23.421C9.02275 23.36 9.10429 23.2709 9.20742 23.1556C9.41363 22.9251 9.70643 22.5898 10.057 22.1662C10.7574 21.3199 11.6917 20.1171 12.6272 18.6904C14.4786 15.867 16.4167 12.0452 16.4167 8.33333H14.9167C14.9167 11.5882 13.188 15.0997 11.3728 17.8679C10.475 19.2371 9.57596 20.3947 8.90137 21.2098C8.56441 21.617 8.28429 21.9377 8.08946 22.1555C7.99207 22.2644 7.91605 22.3474 7.86498 22.4027C7.83944 22.4303 7.82015 22.451 7.80754 22.4644C7.80124 22.4711 7.79661 22.476 7.7937 22.4791C7.79225 22.4806 7.79123 22.4817 7.79065 22.4823C7.79036 22.4826 7.79018 22.4828 7.79011 22.4829C7.79007 22.4829 7.7901 22.4829 7.79009 22.4829C7.79015 22.4828 7.79023 22.4828 8.33333 23ZM0.25 8.33333C0.25 12.0452 2.18804 15.867 4.03948 18.6904C4.97498 20.1171 5.90929 21.3199 6.60971 22.1662C6.96024 22.5898 7.25304 22.9251 7.45925 23.1556C7.56238 23.2709 7.64392 23.36 7.70027 23.421C7.72844 23.4514 7.75033 23.4749 7.76547 23.491C7.77304 23.4991 7.77893 23.5053 7.78307 23.5097C7.78514 23.5119 7.78678 23.5136 7.78798 23.5149C7.78858 23.5155 7.78906 23.516 7.78944 23.5164C7.78963 23.5166 7.78982 23.5168 7.78992 23.5169C7.79009 23.5171 7.79023 23.5172 8.33333 23C8.87644 22.4828 8.87652 22.4828 8.87658 22.4829C8.87657 22.4829 8.8766 22.4829 8.87656 22.4829C8.87649 22.4828 8.87631 22.4826 8.87602 22.4823C8.87544 22.4817 8.87442 22.4806 8.87297 22.4791C8.87006 22.476 8.86543 22.4711 8.85913 22.4644C8.84652 22.451 8.82723 22.4303 8.80169 22.4027C8.75062 22.3474 8.6746 22.2644 8.57721 22.1555C8.38238 21.9377 8.10226 21.617 7.7653 21.2098C7.09071 20.3947 6.19169 19.2371 5.29385 17.8679C3.47863 15.0997 1.75 11.5882 1.75 8.33333H0.25ZM8.33333 0.25C3.86903 0.25 0.25 3.86903 0.25 8.33333H1.75C1.75 4.69746 4.69746 1.75 8.33333 1.75V0.25ZM16.4167 8.33333C16.4167 3.86903 12.7976 0.25 8.33333 0.25V1.75C11.9692 1.75 14.9167 4.69746 14.9167 8.33333H16.4167ZM8.42216 12.927C10.3979 12.927 11.9995 11.3254 11.9995 9.34973H10.4995C10.4995 10.497 9.56943 11.427 8.42216 11.427V12.927ZM4.84485 9.34973C4.84485 11.3254 6.44647 12.927 8.42216 12.927V11.427C7.2749 11.427 6.34485 10.497 6.34485 9.34973H4.84485ZM8.42216 5.77242C6.44647 5.77242 4.84485 7.37403 4.84485 9.34973H6.34485C6.34485 8.20246 7.2749 7.27242 8.42216 7.27242V5.77242ZM11.9995 9.34973C11.9995 7.37403 10.3979 5.77242 8.42216 5.77242V7.27242C9.56943 7.27242 10.4995 8.20246 10.4995 9.34973H11.9995Z" fill="#008AC5"/>
</svg>
