<svg width="17" height="22" viewBox="0 0 17 22" fill="none" xmlns="http://www.w3.org/2000/svg">
<path d="M8.85984 1C4.52589 1 1 4.52589 1 8.85984C1 9.39921 1.05468 9.93765 1.16254 10.4614C1.16469 10.4885 1.16882 10.5158 1.17493 10.5432C2.07383 14.5861 4.41559 18.1705 7.76287 20.6319C8.08256 20.8727 8.46462 21 8.86765 21C9.18704 21 9.50246 20.9164 9.77972 20.7581C9.79856 20.7474 9.8168 20.7356 9.83427 20.7229L10.0771 20.545C13.335 18.1022 15.625 14.5827 16.525 10.635C16.531 10.6088 16.5351 10.5823 16.5372 10.5556C16.6592 10.0055 16.7209 9.43536 16.7209 8.85984C16.7209 4.52589 13.1944 1 8.85984 1ZM15.373 10.3695C15.3669 10.3961 15.3626 10.423 15.3603 10.4499C14.5103 14.0954 12.3857 17.3436 9.37502 19.601L9.17174 19.7498C8.94886 19.8647 8.67282 19.8445 8.4654 19.6881C5.36198 17.4061 3.18874 14.0959 2.33962 10.3606C2.33748 10.337 2.33381 10.3134 2.32875 10.2897C2.22765 9.82339 2.17648 9.34224 2.17648 8.85986C2.17648 5.17465 5.17463 2.1765 8.85984 2.1765C12.5458 2.1765 15.5444 5.17465 15.5444 8.85986C15.5444 9.37392 15.4868 9.8819 15.373 10.3695Z" fill="#1C57A6" stroke="#1C57A6" stroke-width="0.2"/>
<path d="M8.85975 5.49561C7.00497 5.49561 5.49609 7.00479 5.49609 8.85973C5.49609 10.7142 7.00497 12.2229 8.85975 12.2229C10.715 12.2229 12.2243 10.7142 12.2243 8.85973C12.2243 7.00481 10.715 5.49561 8.85975 5.49561ZM8.85975 11.0465C7.65372 11.0465 6.67255 10.0655 6.67255 8.85973C6.67255 7.65339 7.65372 6.67209 8.85975 6.67209C10.0662 6.67209 11.0479 7.65341 11.0479 8.85973C11.0479 10.0655 10.0663 11.0465 8.85975 11.0465Z" fill="#1C57A6"/>
</svg>
