<svg width="18" height="18" viewBox="0 0 18 18" fill="none" xmlns="http://www.w3.org/2000/svg">
<path d="M17.2103 12.1178L15.2585 10.7236C14.5051 10.1856 13.4832 10.2702 12.8286 10.9247L11.6849 12.0684C10.2191 11.0298 6.97091 7.78197 5.93138 6.31504L7.07511 5.17134C7.72979 4.51666 7.81434 3.49477 7.27624 2.74148L5.88209 0.789677C5.20533 -0.157713 3.83828 -0.272182 3.01369 0.552302L1.21285 2.35314C-0.405535 3.97149 -0.404234 6.16165 1.21647 8.36212C3.78681 11.8519 6.14794 14.213 9.63779 16.7833C11.6732 18.2824 13.9109 18.5229 15.6468 16.787L17.4477 14.9861C18.271 14.1628 18.159 12.7954 17.2103 12.1178ZM16.4535 13.9918L14.6526 15.7927C13.4038 17.0416 11.8885 16.6947 10.4717 15.6512C7.10542 13.1719 4.82793 10.8944 2.34864 7.52828C1.30552 6.11198 0.957894 4.59657 2.2071 3.3474L4.00801 1.54652C4.21846 1.33608 4.56577 1.36589 4.73793 1.60695L6.13212 3.55876C6.26905 3.75046 6.2475 4.01048 6.08093 4.17705L4.55888 5.69903C4.36713 5.89081 4.30276 6.17572 4.39343 6.4313C4.87827 7.79751 10.2038 13.1221 11.5687 13.6064C11.8242 13.6972 12.1092 13.6327 12.3009 13.441L13.8229 11.919C13.9895 11.7524 14.2496 11.7309 14.4413 11.8678L16.3931 13.2619C16.6347 13.4345 16.6633 13.782 16.4535 13.9918Z" fill="#1C57A6"/>
</svg>
