<svg width="18" height="18" fill="none" xmlns="http://www.w3.org/2000/svg"><path d="M17.21 12.118l-1.952-1.394a1.88 1.88 0 00-2.43.2l-1.143 1.144C10.219 11.03 6.97 7.782 5.93 6.315l1.144-1.144a1.88 1.88 0 00.201-2.43L5.882.79A1.886 1.886 0 003.014.552L1.213 2.353c-1.619 1.618-1.617 3.809.003 6.01 2.57 3.489 4.932 5.85 8.422 8.42 2.035 1.5 4.273 1.74 6.009.004l1.8-1.8a1.886 1.886 0 00-.237-2.87zm-.757 1.874l-1.8 1.8c-1.25 1.25-2.764.903-4.181-.14-3.367-2.48-5.644-4.758-8.123-8.124-1.043-1.416-1.391-2.931-.142-4.18l1.801-1.801a.48.48 0 01.73.06l1.394 1.952a.478.478 0 01-.051.618L4.559 5.7a.703.703 0 00-.166.732c.485 1.367 5.81 6.691 7.176 7.175.255.091.54.027.732-.165l1.522-1.522a.479.479 0 01.618-.051l1.952 1.394a.48.48 0 01.06.73z" fill="#1C57A6"/></svg>