<svg id="rate-star" viewBox="0 0 20 20" xmlns:xlink="http://www.w3.org/1999/xlink"  xmlns="http://www.w3.org/2000/svg">
<path d="M7.34486 6.60105L9.52794 1.26926C9.52799 1.26914 9.52804 1.26902 9.52809 1.2689C9.61598 1.05543 9.80629 0.934814 10.0005 0.934814C10.1956 0.934814 10.3855 1.05547 10.473 1.26754C10.4731 1.26765 10.4731 1.26777 10.4732 1.26789L12.6561 6.60016L12.7706 6.87996L13.0716 6.90849L18.5926 7.43193C18.5927 7.43194 18.5928 7.43195 18.5929 7.43196C18.7896 7.45102 18.9696 7.59107 19.0378 7.81149L19.5155 7.66382L19.038 7.8121C19.108 8.03753 19.0403 8.27688 18.8808 8.42246L18.8805 8.42281L14.7063 12.2421L14.4941 12.4363L14.5552 12.7173L15.786 18.3736C15.8362 18.6054 15.7476 18.8356 15.5772 18.9647C15.4122 19.0894 15.1987 19.0979 15.0268 18.9902L15.026 18.9897L10.2652 16.0191L10.0005 15.854L9.73577 16.0192L4.9741 18.9906L4.97314 18.9912C4.89199 19.0421 4.80408 19.0661 4.71714 19.0661C4.61667 19.0661 4.51485 19.0337 4.42667 18.966L4.42393 18.9639C4.25354 18.8349 4.16491 18.6049 4.21488 18.3732C4.21491 18.373 4.21495 18.3729 4.21499 18.3727L5.44571 12.7164L5.50686 12.4354L5.29467 12.2412L1.1205 8.42194L1.12012 8.42159C0.9605 8.27585 0.893141 8.03654 0.962895 7.81239L0.963172 7.81149C1.03146 7.59059 1.21165 7.45127 1.40658 7.43289L1.40683 7.43287L6.92933 6.90936L7.2303 6.88083L7.34486 6.60105Z" />
</svg>
