<svg width="15" height="14" viewBox="0 0 15 14" fill="none" xmlns="http://www.w3.org/2000/svg">
<path d="M3.35732 14C3.19297 14 3.02978 13.9501 2.8905 13.852C2.63106 13.6689 2.50986 13.3541 2.58047 13.0504L3.54546 8.91042L0.272828 6.11523C0.032267 5.9107 -0.0596313 5.5868 0.0391336 5.29043C0.137899 4.99462 0.406612 4.78519 0.724766 4.75654L5.05486 4.37368L6.76682 0.471809C6.89305 0.185134 7.18054 0 7.49995 0C7.81936 0 8.10684 0.185135 8.23308 0.47114L9.94504 4.37368L14.2744 4.75654C14.5933 4.78452 14.862 4.99462 14.9608 5.29043C15.0595 5.58625 14.9682 5.9107 14.7276 6.11523L11.455 8.90986L12.42 13.0497C12.4907 13.3541 12.3694 13.6689 12.1101 13.8514C11.8513 14.034 11.5063 14.048 11.2338 13.8885L7.49995 11.7154L3.76611 13.8898C3.63988 13.9628 3.49923 14 3.35732 14ZM5.02178 4.44913L5.0211 4.45036L5.02178 4.44913ZM9.97686 4.44735L9.97754 4.44858L9.97686 4.44735Z" fill="#008AC5"/>
</svg>
