<svg width="15" height="14" viewBox="0 0 15 14" fill="none" xmlns="http://www.w3.org/2000/svg">
<path d="M3.35732 14C3.19297 14 3.02978 13.9501 2.8905 13.852C2.63106 13.6689 2.50986 13.3541 2.58047 13.0504L3.54546 8.91042L0.272828 6.11523C0.032267 5.91071 -0.0596313 5.5868 0.0391336 5.29043C0.137899 4.99462 0.406612 4.78519 0.724766 4.75654L5.05486 4.37368L6.76682 0.471809C6.89305 0.185134 7.18054 0 7.49995 0C7.81936 0 8.10684 0.185135 8.23308 0.47114L9.94504 4.37368L14.2744 4.75654C14.5933 4.78452 14.862 4.99462 14.9608 5.29043C15.0595 5.58625 14.9682 5.91071 14.7276 6.11523L11.455 8.90986L12.42 13.0497C12.4907 13.3541 12.3694 13.6689 12.1101 13.8514C11.8513 14.034 11.5063 14.048 11.2338 13.8885L7.49995 11.7154L3.76611 13.8898C3.63988 13.9628 3.49923 14 3.35732 14ZM7.49995 10.7793C7.64186 10.7793 7.7824 10.8164 7.90874 10.8894L11.4326 12.942L10.5218 9.03458C10.4568 8.75649 10.5538 8.46614 10.7744 8.278L13.8645 5.63863L9.77624 5.27706C9.48189 5.25086 9.22874 5.07063 9.11372 4.80647L7.49995 1.12429L5.88423 4.80703C5.77048 5.06941 5.51733 5.24964 5.22366 5.27583L1.13482 5.63741L4.2248 8.27677C4.44613 8.46547 4.54295 8.75527 4.47738 9.03403L3.56732 12.9414L7.09116 10.8894C7.21739 10.8164 7.35804 10.7793 7.49995 10.7793ZM5.02178 4.44913C5.02178 4.44913 5.02178 4.4498 5.0211 4.45036L5.02178 4.44913ZM9.97686 4.44735L9.97754 4.44858C9.97754 4.44791 9.97754 4.44791 9.97686 4.44735Z" fill="#D1D2D7"/>
</svg>
