<svg id="upload" width="17" height="18" viewBox="0 0 17 18" fill="none" xmlns="http://www.w3.org/2000/svg">
<path d="M14.7171 1.31127C12.9687 -0.437089 10.1242 -0.437089 8.37588 1.31127L1.69933 7.98779C1.49328 8.19384 1.49328 8.52765 1.69933 8.7337C1.90538 8.93975 2.23919 8.93975 2.44524 8.7337L9.12176 2.05718C10.4178 0.762161 12.6751 0.762161 13.9711 2.05718C15.3079 3.39392 15.3079 5.56932 13.9711 6.90606L4.64827 16.3339C3.85085 17.1313 2.46155 17.1313 1.66417 16.3339C0.841517 15.5113 0.841517 14.173 1.66417 13.3503L10.6141 4.29487C10.9129 3.99611 11.4342 3.99611 11.733 4.29487C12.0415 4.6034 12.0415 5.10568 11.733 5.41424L3.15648 14.0962C2.97859 14.2741 2.97859 14.6642 3.15648 14.8421C3.36253 15.0481 3.69634 15.0481 3.90239 14.8421L12.4788 6.16012C13.199 5.43994 13.199 4.2691 12.4788 3.54896C11.7814 2.8515 10.5646 2.85252 9.86819 3.54896L0.918263 12.6044C-0.306088 13.8287 -0.306088 15.8554 0.918263 17.0798C1.51634 17.6779 2.31115 18 3.15645 18C4.00175 18 4.79663 17.6779 5.39418 17.0798L14.717 7.65194C16.4654 5.90358 16.4654 3.05959 14.7171 1.31127Z" fill="#008AC5"/>
</svg>
