<?xml version="1.0" encoding="UTF-8"?> <svg xmlns="http://www.w3.org/2000/svg" width="100" height="73" viewBox="0 0 100 73" fill="none"><path d="M53.1959 34.7672L54.0938 33.8728L50.9512 30.7427H41.2991V31.9724H50.39L53.1959 34.7672Z" fill="#2E384C"></path><path d="M53.5703 32.9412L82.9336 62.189L81.267 63.849L51.9037 34.6012L53.5703 32.9412Z" fill="#2E384C"></path><path d="M95.1947 53.2046L95.9883 53.9951L84.8778 65.0618L84.0842 64.2714L95.1947 53.2046Z" fill="#2E384C"></path><path d="M85.04 33.3241L100.039 48.2642L85.04 63.2042L70.0409 48.2642L85.04 33.3241Z" fill="#F9BC64"></path><path d="M69.9579 18.4061L84.957 33.3462L69.9579 48.2862L54.9589 33.3462L69.9579 18.4061Z" fill="#FFCE80"></path><path d="M77.2799 29.3871L80.6914 32.7871L79.6594 33.8144L76.2479 30.4144L77.2799 29.3871Z" fill="#454545"></path><path d="M75.8634 30.7427L77.5469 28.9541L75.6389 28.7305L75.8634 30.7427Z" fill="#454545"></path><path d="M74.2399 32.3841L77.6523 35.7832L76.6207 36.8108L73.2082 33.4118L74.2399 32.3841Z" fill="#454545"></path><path d="M72.8371 33.6495L74.6328 31.9726L72.6126 31.749L72.8371 33.6495Z" fill="#454545"></path><path d="M81.4938 32.7732L81.8906 33.1685L77.129 37.9113L76.7322 37.5161L81.4938 32.7732Z" fill="#454545"></path><path d="M92.2516 44.2381L95.6641 47.6372L94.6324 48.6648L91.2199 45.2658L92.2516 44.2381Z" fill="#454545"></path><path d="M90.7941 45.6109L92.5898 43.934L90.6819 43.7104L90.7941 45.6109Z" fill="#454545"></path><path d="M89.2125 47.2323L92.625 50.6313L91.5933 51.659L88.1808 48.2599L89.2125 47.2323Z" fill="#454545"></path><path d="M87.879 48.6294L89.5625 46.8408L87.6545 46.6172L87.879 48.6294Z" fill="#454545"></path><path d="M96.3844 47.7024L96.7812 48.0977L92.0196 52.8405L91.6228 52.4453L96.3844 47.7024Z" fill="#454545"></path><path d="M20.2029 11.8501C20.2029 11.8501 19.305 15.9864 18.6316 20.3463C18.2949 22.5821 19.8661 35.6617 19.8661 35.6617C19.8661 35.6617 26.8246 26.7184 26.6002 24.1472C26.1512 18.7812 24.131 18.334 23.2332 16.7689C23.0087 16.3218 23.3454 12.7444 23.3454 12.7444L20.2029 11.8501Z" fill="#EAA563"></path><path d="M19.4148 16.0977C19.4148 16.0977 21.0983 16.2094 22.5573 16.3212C23.9041 16.433 25.1387 18.4453 25.1387 18.4453C25.1387 18.4453 27.8323 24.1467 27.6078 25.6C27.4956 26.0471 27.3833 27.0532 27.1589 28.0594C26.4855 31.5249 24.9142 34.7669 22.6695 37.5617C21.0983 39.9093 21.2105 38.1206 18.4047 38.1206L13.9153 35.6612C13.8031 35.6612 13.8031 21.6872 19.4148 16.0977Z" fill="#00B0E4"></path><path d="M28.2824 7.4902C28.6191 5.81332 27.0479 3.4657 25.1399 3.13032L24.3542 3.01853C22.4463 2.68316 19.416 4.02466 19.0793 5.70153L18.8548 10.3968C18.7426 12.2972 23.5686 14.5331 25.4766 15.4274C27.609 15.3156 27.3846 11.8501 28.058 10.0614L28.2824 7.4902Z" fill="#FCCA9B"></path><path d="M27.1563 11.8499L27.7175 8.83154L28.6154 11.4028C28.7276 11.8499 28.2787 12.1853 27.8297 12.0735L27.1563 11.8499Z" fill="#FCCA9B"></path><path d="M28.0577 4.91885C28.0577 4.91885 29.18 6.03677 27.8332 6.59573C26.5986 7.15469 25.4763 6.26035 25.2518 7.26648C24.5784 9.83769 22.7827 10.6202 22.6705 10.9556C22.6705 11.1792 21.6604 11.4028 21.2114 12.5207C20.987 13.0796 20.0891 13.1914 19.7524 12.6325C18.8545 11.1792 16.1609 9.83769 16.8343 6.37214C16.8343 6.37214 18.6301 1.34152 24.2417 2.68302L24.6907 2.79481C26.8231 3.24198 28.0577 4.91885 28.0577 4.91885Z" fill="#082238"></path><path d="M23.9034 9.72584C24.0156 9.05509 23.5667 8.38434 22.781 8.27254C21.9954 8.16075 21.7709 8.71971 21.5465 9.50225C21.4342 9.83763 21.8832 11.4027 22.3321 11.5145L23.4545 11.6263L24.0156 10.173L23.9034 9.72584Z" fill="#FCCA9B"></path><path d="M16.8368 6.70741L28.7335 7.37816L28.8458 6.26024C29.0702 3.01828 26.4889 0.22349 23.2341 0.111699H23.1219C19.8671 -0.111885 17.0613 2.45932 16.949 5.70128L16.8368 6.70741Z" fill="#008AC5"></path><path d="M33.2195 7.93715C33.2195 7.93715 33.3318 8.38432 32.2094 8.6079C31.1993 8.94328 30.1892 8.38432 29.8525 8.38432C29.5158 8.27253 26.9345 7.2664 26.9345 7.2664L28.8424 6.37207L33.2195 7.93715Z" fill="#008AC5"></path><path d="M38.9435 29.2894L30.0771 25.0413C30.0771 25.0413 25.9244 20.2343 25.4755 19.4517C24.9143 18.3338 23.792 17.6631 22.5574 17.5513C22.5574 17.5513 22.2207 17.5513 21.9963 17.5513C20.2005 17.7749 19.4149 20.905 20.3128 22.4701C22.8941 27.3889 27.8324 29.9601 27.8324 29.9601C28.2813 30.5191 39.168 33.0903 39.168 33.0903L38.9435 29.2894Z" fill="#52C3F1"></path><path d="M40.7387 35.3258L38.8307 33.2018V29.4009L41.6365 30.6306C44.5546 32.0839 44.4424 34.4315 44.4424 34.4315C44.5546 34.9905 41.4121 35.1023 40.7387 35.3258Z" fill="#FCCA9B"></path><path d="M-0.00226593 64.2805L2.46687 68.1932C3.14027 69.1993 4.15037 69.9819 5.2727 70.3173L5.9461 70.5408L7.40514 70.988C7.96631 71.2116 8.52748 70.6526 8.41524 69.9819C8.30301 69.1993 7.74184 68.4168 6.9562 67.9696L6.73174 67.8578V65.622V64.3923L3.70143 60.9268L-0.00226593 64.2805Z" fill="#442332"></path><path d="M26.3722 67.7461L25.4743 71.3234C25.2499 72.2178 25.9233 73.0003 26.8211 73.0003H35.5753C36.361 73.0003 36.9222 72.2178 36.8099 71.4352C36.6977 70.9881 36.361 70.6527 35.9121 70.5409L32.994 69.7583L31.4227 67.7461H26.3722Z" fill="#442332"></path><path d="M19.1874 54.1072L23.1156 56.343L25.4725 68.7519L31.3086 67.7458L30.074 53.9954L22.5544 37.562L19.1874 54.1072Z" fill="#0A6EA9"></path><path d="M3.69946 60.9266L6.72977 64.3921V65.6218L7.17871 66.4044L18.6265 57.0139L19.1877 54.1073L22.5547 37.6739L13.8005 35.7734L12.9026 38.4564C12.6781 40.1333 12.7904 41.8102 13.1271 43.4871L12.117 53.9955L3.69946 60.9266Z" fill="#008AC5"></path><path d="M3.70016 60.9268L6.73047 65.622L6.61824 64.3923L3.70016 60.9268Z" fill="#414E68"></path><path d="M75.1934 64.9508C75.1934 68.3045 77.9992 71.0993 81.3662 71.0993C84.7332 71.0993 87.5391 68.3045 87.5391 64.9508C87.5391 61.597 84.7332 58.8022 81.3662 58.8022C77.887 58.8022 75.1934 61.597 75.1934 64.9508Z" fill="#2E384C"></path><path d="M77.7759 64.9509C77.7759 66.8513 79.3472 68.4164 81.2551 68.4164C83.1631 68.4164 84.7344 66.8513 84.7344 64.9509C84.7344 63.0504 83.1631 61.4854 81.2551 61.4854C79.3472 61.4854 77.7759 63.0504 77.7759 64.9509Z" fill="#EBEBED"></path></svg> 