<svg width="382" height="90" viewBox="0 0 382 90" fill="none" xmlns="http://www.w3.org/2000/svg">
<path d="M93.0378 60.2085C92.9552 57.113 92.9635 52.3665 93.0625 45.969C93.1698 39.5716 93.2235 35.3823 93.2235 33.4012C93.2235 32.5344 93.5207 31.7997 94.115 31.1971C94.7176 30.6028 95.4523 30.3056 96.319 30.3056C97.1858 30.3056 97.9163 30.6028 98.5107 31.1971C99.1133 31.7997 99.4146 32.5344 99.4146 33.4012C99.4146 35.3823 99.3609 39.551 99.2536 45.9071C99.1546 52.2633 99.1463 56.9892 99.2288 60.0847C99.2288 60.9515 98.9399 61.6944 98.3621 62.3135C97.7843 62.9326 97.062 63.2421 96.1952 63.2421C95.3285 63.2421 94.5855 62.9532 93.9664 62.3754C93.3473 61.7976 93.0378 61.0753 93.0378 60.2085ZM98.7955 19.5951C99.4971 20.2967 99.8479 21.1635 99.8479 22.1953C99.8479 23.2272 99.4971 24.0939 98.7955 24.7956C98.0938 25.4972 97.2271 25.848 96.1952 25.848C95.1634 25.848 94.2966 25.4972 93.595 24.7956C92.8933 24.0939 92.5425 23.2272 92.5425 22.1953C92.5425 21.1635 92.8933 20.2967 93.595 19.5951C94.2966 18.8934 95.1716 18.5302 96.22 18.5054C97.2766 18.4889 98.1351 18.8521 98.7955 19.5951ZM110.732 63.1802C109.906 63.1802 109.184 62.8996 108.565 62.3383C107.946 61.7852 107.636 61.034 107.636 60.0847L107.513 47.4549C107.479 44.607 107.463 41.0575 107.463 36.8062V33.1535C107.463 32.2042 107.752 31.4613 108.33 30.9247C108.899 30.3882 109.597 30.1199 110.422 30.1199C111.297 30.1199 112.053 30.3964 112.688 30.9495C113.332 31.5108 113.654 32.2868 113.654 33.2773V35.1347C114.108 34.1441 114.954 33.298 116.192 32.5963C117.885 31.5645 119.742 31.0485 121.764 31.0485C123.283 31.0485 124.455 31.2962 125.281 31.7915C126.106 32.2868 126.519 33.1741 126.519 34.4536C126.519 35.2791 126.276 35.9684 125.789 36.5215C125.285 37.0828 124.563 37.3634 123.622 37.3634C120.155 37.3634 117.761 37.8381 116.44 38.7874C115.697 39.2827 115.045 39.8812 114.484 40.5828C113.931 41.2845 113.654 41.9655 113.654 42.6259L113.778 50.3647L113.827 60.0847C113.827 61.034 113.518 61.7852 112.899 62.3383C112.28 62.8996 111.557 63.1802 110.732 63.1802ZM140.759 62.9945C140.511 62.912 140.007 62.7881 139.248 62.623C138.48 62.4579 137.82 62.2722 137.267 62.0658C136.706 61.8595 136.066 61.5582 135.348 61.1619C134.621 60.774 133.969 60.2374 133.391 59.5523C132.813 58.8754 132.318 58.0623 131.905 57.113C131.451 55.9986 131.162 53.8111 131.039 50.5504C130.915 48.0327 130.894 44.7927 130.977 40.8305C130.977 40.0875 130.997 38.8493 131.039 37.1158L130.543 37.1777C129.677 37.2603 128.913 37.0333 128.253 36.4967C127.592 35.9601 127.213 35.2667 127.113 34.4165C127.006 33.5745 127.221 32.8233 127.757 32.1629C128.294 31.5026 128.975 31.1105 129.8 30.9866L131.224 30.8628C131.266 28.6753 131.328 26.4671 131.41 24.2384C131.451 23.3716 131.782 22.6493 132.401 22.0715C133.02 21.4936 133.763 21.2254 134.629 21.2666C135.496 21.3079 136.218 21.6381 136.796 22.2572C137.374 22.8763 137.642 23.6193 137.601 24.486L137.415 30.3675L139.458 30.2437C140.325 30.2024 141.081 30.4501 141.724 30.9866C142.36 31.5232 142.711 32.2249 142.777 33.0916C142.835 33.9584 142.595 34.7095 142.059 35.3452C141.522 35.989 140.821 36.3522 139.954 36.4348L137.23 36.5586C137.188 38.5398 137.168 39.9843 137.168 40.8924C137.085 44.7721 137.106 47.9296 137.23 50.3647C137.312 52.8411 137.436 54.2651 137.601 54.6366C137.766 55.008 137.89 55.2639 137.973 55.4042C138.055 55.5528 138.212 55.6973 138.443 55.8376C138.666 55.9862 138.901 56.0811 139.149 56.1224C139.397 56.1637 139.863 56.2751 140.548 56.4567C141.225 56.6466 141.956 56.886 142.74 57.1749C143.524 57.4225 144.114 57.9261 144.51 58.6855C144.898 59.4532 144.96 60.2374 144.696 61.0381C144.424 61.8471 143.908 62.4456 143.148 62.8335C142.381 63.2298 141.584 63.2834 140.759 62.9945ZM171.404 63.1802C170.661 63.139 170.013 62.85 169.46 62.3135C168.899 61.7769 168.577 60.8689 168.495 59.5894C166.596 61.2404 164.636 62.3135 162.613 62.8088C159.724 63.5517 157.082 63.0771 154.689 61.3848C152.377 59.7339 150.561 57.0098 149.24 53.2126C148.786 51.8918 148.436 50.5298 148.188 49.1265C147.94 47.6819 147.829 46.1424 147.854 44.5079C147.87 42.8818 147.899 41.561 147.94 40.5457C147.982 39.5386 148.085 38.1559 148.25 36.3976C148.415 34.6476 148.518 33.5456 148.559 33.0916C148.642 32.2661 149.005 31.5727 149.649 31.0114C150.285 30.4583 151.028 30.2107 151.878 30.2685C152.72 30.3345 153.421 30.6853 153.983 31.321C154.536 31.9648 154.792 32.7201 154.75 33.5869C154.709 34.206 154.598 35.3823 154.416 37.1158C154.226 38.8493 154.123 40.137 154.107 40.979C154.082 41.8293 154.061 42.9437 154.045 44.3222C154.02 45.709 154.102 46.9472 154.292 48.0369C154.474 49.1347 154.73 50.1996 155.06 51.2315C155.968 53.7492 157.124 55.462 158.527 56.3701C159.105 56.7415 160.054 56.9272 161.375 56.9272C163.15 56.6383 164.586 56.1224 165.684 55.3795C166.773 54.6366 167.793 52.9443 168.742 50.3028C168.825 44.8134 168.763 39.2414 168.557 33.5869C168.515 32.7201 168.796 31.9772 169.399 31.3581C169.993 30.739 170.715 30.4088 171.565 30.3675C172.407 30.3263 173.138 30.6028 173.757 31.1971C174.376 31.7997 174.706 32.5138 174.748 33.3392C175.078 43.0799 175.057 52.0569 174.686 60.2704C174.644 61.0959 174.306 61.7976 173.67 62.3754C173.026 62.9532 172.271 63.2215 171.404 63.1802ZM200.255 62.1897C198.769 62.7675 197.085 63.0977 195.203 63.1802C193.329 63.2628 191.587 63.044 189.978 62.524C188.368 62.0122 186.944 61.2197 185.706 60.1466C183.56 58.3718 182.177 56.1637 181.558 53.5222C180.939 50.8806 180.918 48.5074 181.496 46.4024C182.074 44.2975 182.949 42.242 184.121 40.2361C185.301 38.2385 186.581 36.5462 187.959 35.1594C189.346 33.7809 190.948 32.617 192.764 31.6677C194.58 30.7184 196.478 30.252 198.459 30.2685C200.441 30.2932 202.525 30.8422 204.712 31.9153C205.043 32.0804 205.402 32.328 205.79 32.6582C206.186 32.9884 206.528 33.2773 206.817 33.525L207.622 34.3298C207.87 34.5775 207.994 34.7219 207.994 34.7632C208.654 35.341 209.005 36.084 209.046 36.992C209.583 39.4684 209.934 42.0687 210.099 44.7927C210.264 47.5168 210.313 50.0758 210.247 52.4697C210.189 54.8636 210.222 57.4019 210.346 60.0847C210.388 60.9102 210.119 61.6325 209.541 62.2516C208.964 62.8707 208.241 63.2009 207.375 63.2421C206.508 63.2834 205.765 63.0151 205.146 62.4373C204.527 61.8595 204.197 61.1578 204.155 60.3323V59.4037C202.917 60.6832 201.617 61.6118 200.255 62.1897ZM197.469 56.6177C198.088 56.4526 198.583 56.2875 198.955 56.1224C199.326 55.9573 199.788 55.7097 200.342 55.3795C200.903 55.0493 201.493 54.6366 202.112 54.1413C202.731 53.646 203.288 53.0269 203.784 52.2839C203.866 52.2014 203.969 52.1188 204.093 52.0363C204.093 46.4643 203.742 41.9861 203.041 38.6017C202.917 38.4366 202.781 38.2797 202.632 38.1311C202.492 37.9908 202.389 37.8794 202.323 37.7968C202.265 37.7143 202.182 37.64 202.075 37.5739C201.976 37.5162 201.865 37.446 201.741 37.3634C199.76 36.2903 197.675 36.2573 195.488 37.2644C193.3 38.2797 191.381 40.1701 189.73 42.9354C188.079 45.742 187.262 48.1854 187.278 50.2657C187.303 52.3541 188.1 54.0794 189.668 55.4414C190.617 56.2256 191.794 56.7209 193.197 56.9272C194.6 57.1336 196.024 57.0304 197.469 56.6177ZM223.967 60.2085C223.925 61.0753 223.595 61.7976 222.976 62.3754C222.357 62.9532 221.614 63.2215 220.747 63.1802C219.881 63.139 219.158 62.8088 218.58 62.1897C218.003 61.5706 217.734 60.8276 217.776 59.9609C217.941 54.4715 218.023 50.3028 218.023 47.4549C218.023 44.607 217.982 40.3558 217.899 34.7013C217.817 29.0468 217.776 24.7956 217.776 21.9477C217.776 21.0809 218.073 20.3462 218.667 19.7436C219.27 19.1493 220.004 18.8521 220.871 18.8521C221.738 18.8521 222.468 19.1493 223.063 19.7436C223.665 20.3462 223.967 21.0809 223.967 21.9477C223.967 24.7956 224.008 28.8404 224.09 34.0822C224.173 39.324 224.202 44.0787 224.177 48.3464C224.161 52.6224 224.09 56.5764 223.967 60.2085ZM263.144 63.3041C260.791 63.3453 258.492 62.9326 256.247 62.0658C253.993 61.1991 252.144 59.9402 250.7 58.2893C249.214 56.5558 248.232 54.4838 247.753 52.0734C247.282 49.6548 247.266 47.3517 247.703 45.1642C248.133 42.9767 248.863 40.8717 249.895 38.8493C250.72 37.3222 251.711 35.9478 252.867 34.726C254.022 33.5126 255.376 32.4808 256.928 31.6305C258.472 30.7885 260.123 30.3345 261.881 30.2685C263.631 30.2107 265.517 30.5945 267.539 31.42C268.613 31.9153 269.706 32.6995 270.821 33.7726L272.802 35.7538C273.462 36.2903 273.834 36.992 273.916 37.8587C273.999 38.7255 273.764 39.4767 273.211 40.1123C272.649 40.7562 271.935 41.1194 271.068 41.2019C270.202 41.2845 269.459 41.0368 268.84 40.459C268.468 40.1701 268.035 39.778 267.539 39.2827L266.487 38.2302C265.909 37.6524 265.435 37.2809 265.063 37.1158C263.206 36.2903 261.431 36.2986 259.739 37.1406C258.046 37.9908 256.602 39.5303 255.405 41.7591C254.167 44.0704 253.56 46.3818 253.585 48.6931C253.601 51.0045 254.208 52.8411 255.405 54.2032C256.148 55.0699 257.221 55.7716 258.624 56.3081C260.028 56.8447 261.514 57.113 263.082 57.113C266.26 57.0304 268.303 55.8954 269.211 53.7079L269.149 53.3983V51.6029C269.19 50.7362 269.533 50.0221 270.177 49.4608C270.813 48.9077 271.564 48.6518 272.43 48.6931C273.297 48.7344 274.011 49.0728 274.573 49.7085C275.126 50.3523 275.382 51.1076 275.34 51.9744V53.3364C275.382 54.3683 275.237 55.2763 274.907 56.0605C273.958 58.4544 272.402 60.2498 270.239 61.4467C268.068 62.6437 265.703 63.2628 263.144 63.3041ZM304.376 63.1802C303.633 63.139 302.981 62.85 302.42 62.3135C301.867 61.7769 301.549 60.8689 301.467 59.5894C299.568 61.2404 297.608 62.3135 295.585 62.8088C292.696 63.5517 290.054 63.0771 287.66 61.3848C285.349 59.7339 283.533 57.0098 282.212 53.2126C281.758 51.8918 281.407 50.5298 281.16 49.1265C280.912 47.6819 280.797 46.1424 280.813 44.5079C280.838 42.8818 280.871 41.561 280.912 40.5457C280.953 39.5386 281.057 38.1559 281.222 36.3976C281.387 34.6476 281.49 33.5456 281.531 33.0916C281.614 32.2661 281.973 31.5727 282.609 31.0114C283.252 30.4583 283.995 30.2107 284.837 30.2685C285.688 30.3345 286.389 30.6853 286.942 31.321C287.504 31.9648 287.764 32.7201 287.722 33.5869C287.681 34.206 287.566 35.3823 287.376 37.1158C287.194 38.8493 287.091 40.137 287.066 40.979C287.05 41.8293 287.029 42.9437 287.004 44.3222C286.988 45.709 287.07 46.9472 287.252 48.0369C287.442 49.1347 287.702 50.1996 288.032 51.2315C288.94 53.7492 290.096 55.462 291.499 56.3701C292.077 56.7415 293.026 56.9272 294.347 56.9272C296.122 56.6383 297.554 56.1224 298.643 55.3795C299.741 54.6366 300.765 52.9443 301.714 50.3028C301.797 44.8134 301.735 39.2414 301.529 33.5869C301.487 32.7201 301.764 31.9772 302.358 31.3581C302.961 30.739 303.683 30.4088 304.525 30.3675C305.375 30.3263 306.11 30.6028 306.729 31.1971C307.348 31.7997 307.678 32.5138 307.72 33.3392C308.05 43.0799 308.029 52.0569 307.658 60.2704C307.616 61.0959 307.274 61.7976 306.63 62.3754C305.994 62.9532 305.243 63.2215 304.376 63.1802ZM318.987 63.1802C318.112 63.139 317.39 62.7964 316.82 62.1525C316.234 61.5169 315.966 60.7864 316.016 59.9609C316.09 58.1036 316.152 56.6177 316.201 55.5033C316.234 54.0587 316.276 52.4986 316.325 50.8228C316.366 49.1554 316.395 47.7438 316.412 46.5882C316.428 45.4325 316.428 44.0374 316.412 42.403C316.395 40.7768 316.387 39.5179 316.387 38.6264C316.387 37.7432 316.375 36.1748 316.35 33.9212C316.333 31.6759 316.313 30.252 316.288 29.6494C316.263 29.055 316.234 27.7343 316.201 25.6871C316.152 23.6481 316.127 22.4223 316.127 22.0096C316.127 21.1428 316.42 20.3999 317.006 19.7808C317.584 19.1617 318.306 18.8521 319.173 18.8521C320.032 18.8521 320.77 19.141 321.389 19.7189C322.009 20.2967 322.318 21.019 322.318 21.8858C322.45 27.4165 322.516 30.8835 322.516 32.2868C323.135 31.874 323.775 31.5438 324.435 31.2962C327.234 30.2643 329.768 29.9837 332.038 30.4542C334.308 30.933 336.355 32.0185 338.18 33.7107C339.748 35.1966 341.036 37.0126 342.043 39.1589C343.058 41.3051 343.706 43.245 343.987 44.9785C344.689 50.2203 343.785 54.6159 341.275 58.1655C339.831 60.2292 337.932 61.6944 335.579 62.5611C333.268 63.4692 330.602 63.6755 327.581 63.1802C325.566 62.85 323.709 62.1897 322.009 61.1991C321.769 61.8182 321.369 62.3135 320.808 62.685C320.246 63.0564 319.639 63.2215 318.987 63.1802ZM328.584 57.113C332.092 57.6495 334.647 56.8034 336.248 54.5746C337.825 52.3459 338.365 49.4154 337.87 45.7833C337.375 42.729 336.075 40.2113 333.97 38.2302C331.906 36.3316 329.467 35.9189 326.652 36.992C326.371 37.1158 326.115 37.2479 325.884 37.3882C325.653 37.5368 325.418 37.7555 325.178 38.0445L324.435 38.6636C324.262 38.8699 323.969 39.2084 323.556 39.6789C323.144 40.1577 322.818 40.5209 322.578 40.7685C322.611 45.061 322.566 49.2503 322.442 53.3364L322.516 53.3983C323.911 55.4208 325.934 56.659 328.584 57.113ZM366.151 63.4898C363.097 63.2834 360.435 62.6643 358.164 61.6325C355.894 60.6006 354.161 59.3005 352.964 57.7321C351.767 56.1637 350.9 54.7191 350.364 53.3983C349.827 52.0776 349.497 50.7651 349.373 49.4608C349.249 48.1648 349.311 46.485 349.559 44.4213C349.848 42.6878 350.459 40.9749 351.391 39.2827C352.316 37.5905 353.554 36.0716 355.106 34.726C356.65 33.3888 358.515 32.3569 360.703 31.6305C362.89 30.9123 365.222 30.6977 367.699 30.9866C370.093 31.2756 372.136 31.9236 373.828 32.9306C375.52 33.946 376.965 35.2378 378.162 36.8062C379.194 38.127 379.825 39.1176 380.056 39.778C380.279 40.4383 380.485 41.0575 380.675 41.6353C380.857 42.2131 381.01 42.7084 381.133 43.1211C381.257 43.5339 381.373 43.9549 381.48 44.3841C381.579 44.8216 381.649 45.3293 381.691 45.9071C381.732 46.6913 381.587 47.4136 381.257 48.074C380.927 48.7344 380.432 49.2503 379.771 49.6218C379.235 49.8281 378.657 49.9313 378.038 49.9313L367.451 50.1171C360.022 50.1583 356.307 50.2409 356.307 50.3647H356.121C356.658 52.4697 357.785 54.1206 359.502 55.3176C361.211 56.5145 363.551 57.2162 366.522 57.4225C368.132 57.5051 369.474 57.4225 370.547 57.1749C371.744 56.8447 372.61 56.5434 373.147 56.271C373.683 56.0068 374.344 55.6478 375.128 55.1937C375.912 54.9048 376.696 54.9461 377.481 55.3176C378.265 55.689 378.801 56.2669 379.09 57.0511C379.379 57.8353 379.35 58.5988 379.004 59.3418C378.649 60.0847 378.1 60.6625 377.357 61.0753C376.696 61.4467 376.015 61.7645 375.314 62.0287C374.612 62.3011 373.58 62.623 372.218 62.9945C370.856 63.366 368.834 63.5311 366.151 63.4898ZM356.245 44.2975C358.639 44.1736 364.851 44.0498 374.88 43.926C374.509 42.6878 373.91 41.5115 373.085 40.3971C371.434 38.4985 369.391 37.4047 366.956 37.1158C364.397 36.7856 362.147 37.3304 360.208 38.7502C358.268 40.1783 356.947 42.0274 356.245 44.2975Z" fill="#FBFBFB"></path>
<g filter="url(#filter0_d_272_33)">
<path d="M22.7978 65.1435H83.5063C84.5804 65.1435 85.4494 64.2729 85.4494 63.2004V2.49311C85.4494 1.42038 84.579 0.55 83.5063 0.55H22.7978C21.7251 0.55 20.8547 1.42038 20.8547 2.49311V63.2004C20.8547 64.2731 21.7251 65.1435 22.7978 65.1435ZM81.5632 4.43621V61.2573H24.7409V4.43621H81.5632Z" fill="#2F76DB" stroke="#2F76DB" stroke-width="0.9"></path>
<g filter="url(#filter1_dd_272_33)">
<path d="M45.0497 70.0724C43.7202 70.1424 42.5307 69.7925 41.4812 69.0229C41.1313 68.743 40.8165 68.4281 40.5366 68.0783C40.2567 67.7984 40.0118 67.4835 39.8019 67.1336L38.9622 65.6643C38.5424 64.8246 38.0176 63.6701 37.3879 62.2007L35.2888 57.4777C34.1693 54.7489 31.7413 48.5005 28.0049 38.7326C24.2544 28.9787 22.0294 23.2271 21.3297 21.4779C20.8399 20.1484 20.8959 18.819 21.4976 17.4896C22.0854 16.1601 23.0439 15.2295 24.3734 14.6977C25.7028 14.18 27.0323 14.2149 28.3617 14.8027C29.6911 15.4044 30.6357 16.37 31.1955 17.6995C31.7553 19.2388 33.9454 24.9764 37.7657 34.9122C41.5721 44.848 43.9651 51.0404 44.9447 53.4894L45.3645 54.434C45.6444 53.9442 45.8893 53.4334 46.0992 52.9016C46.3091 52.3839 46.4841 51.964 46.624 51.6422C46.764 51.3343 46.8689 51.0404 46.9389 50.7605L47.1488 50.3407C47.6386 49.2212 49.5138 44.4632 52.7744 36.0667C56.0211 27.6703 58.7989 21.3729 61.1079 17.1747C61.8076 15.9152 62.8572 15.0756 64.2566 14.6558C65.656 14.2359 66.9854 14.3759 68.2449 15.0756C69.5044 15.7753 70.344 16.8248 70.7638 18.2243C71.1837 19.6237 71.0437 20.9531 70.344 22.2126C68.105 26.2709 65.537 32.0784 62.6403 39.6352C59.7295 47.1921 57.7843 52.16 56.8047 54.539L53.866 60.9413C52.8864 62.9004 51.9768 64.5098 51.1371 65.7692C50.5074 66.6788 49.8776 67.4135 49.2479 67.9733C47.9884 69.2328 46.589 69.9325 45.0497 70.0724Z" fill="#FBFBFB"></path>
</g>
<path d="M6.49311 81.4492H67.2016C68.2741 81.4492 69.1447 80.5802 69.1447 79.5061V18.7988C69.1447 17.726 68.2743 16.8557 67.2016 16.8557H6.49311C5.42038 16.8557 4.55 17.726 4.55 18.7988V79.5061C4.55 80.5788 5.42038 81.4492 6.49311 81.4492ZM65.2585 20.7419V77.563H8.43621V20.7419H65.2585Z" fill="#2F76DB" stroke="#2F76DB" stroke-width="0.9"></path>
<path d="M65.8277 17.4249L65.8274 17.4252C65.0694 18.1848 65.0689 19.4143 65.8277 20.1731C66.207 20.5525 66.7052 20.7421 67.2018 20.7421C67.6984 20.7421 68.1967 20.5525 68.576 20.1731L68.576 20.1731L84.8807 3.86722L84.881 3.8669C85.6386 3.10773 85.6412 1.87797 84.8804 1.11866C84.1208 0.360627 82.8913 0.360159 82.1324 1.11898L82.1324 1.119L65.8277 17.4249Z" fill="#2F76DB" stroke="#2F76DB" stroke-width="0.9"></path>
<path d="M5.11897 17.4249L5.11866 17.4252C4.36063 18.1848 4.36016 19.4143 5.11898 20.1731C5.4983 20.5525 5.99652 20.7421 6.49311 20.7421C6.99025 20.7421 7.48671 20.5521 7.86658 20.1738L7.86724 20.1731L24.172 3.86722L24.1723 3.8669C24.9299 3.10773 24.9325 1.87797 24.1716 1.11866C23.412 0.360627 22.1825 0.360159 21.4237 1.11898L21.4237 1.119L5.11897 17.4249Z" fill="#2F76DB" stroke="#2F76DB" stroke-width="0.9"></path>
<path d="M65.8277 78.1339L65.8274 78.1342C65.0694 78.8938 65.0689 80.1233 65.8277 80.8821C66.207 81.2614 66.7053 81.4511 67.2018 81.4511C67.6984 81.4511 68.1967 81.2614 68.576 80.8821L68.576 80.8821L84.8807 64.5762L84.881 64.5759C85.6386 63.8167 85.6412 62.587 84.8804 61.8276C84.1208 61.0696 82.8913 61.0691 82.1324 61.828L82.1324 61.828L65.8277 78.1339Z" fill="#2F76DB" stroke="#2F76DB" stroke-width="0.9"></path>
<path d="M5.11897 78.1339L5.11866 78.1342C4.36063 78.8938 4.36016 80.1233 5.11898 80.8821C5.4983 81.2614 5.99652 81.4511 6.49311 81.4511C6.99024 81.4511 7.48671 81.2611 7.86658 80.8828L7.86724 80.8821L24.172 64.5762L24.1723 64.5759C24.9299 63.8167 24.9325 62.587 24.1716 61.8276C23.412 61.0696 22.1825 61.0691 21.4237 61.828L21.4237 61.828L5.11897 78.1339Z" fill="#2F76DB" stroke="#2F76DB" stroke-width="0.9"></path>
</g>
<defs>
<filter id="filter0_d_272_33" x="0.100098" y="0.0996094" width="89.8" height="89.8018" filterUnits="userSpaceOnUse" color-interpolation-filters="sRGB">
<feFlood flood-opacity="0" result="BackgroundImageFix"></feFlood>
<feColorMatrix in="SourceAlpha" type="matrix" values="0 0 0 0 0 0 0 0 0 0 0 0 0 0 0 0 0 0 127 0" result="hardAlpha"></feColorMatrix>
<feOffset dy="4"></feOffset>
<feGaussianBlur stdDeviation="2"></feGaussianBlur>
<feComposite in2="hardAlpha" operator="out"></feComposite>
<feColorMatrix type="matrix" values="0 0 0 0 0 0 0 0 0 0 0 0 0 0 0 0 0 0 0.25 0"></feColorMatrix>
<feBlend mode="normal" in2="BackgroundImageFix" result="effect1_dropShadow_272_33"></feBlend>
<feBlend mode="normal" in="SourceGraphic" in2="effect1_dropShadow_272_33" result="shape"></feBlend>
</filter>
<filter id="filter1_dd_272_33" x="17" y="14.334" width="58" height="63.7471" filterUnits="userSpaceOnUse" color-interpolation-filters="sRGB">
<feFlood flood-opacity="0" result="BackgroundImageFix"></feFlood>
<feColorMatrix in="SourceAlpha" type="matrix" values="0 0 0 0 0 0 0 0 0 0 0 0 0 0 0 0 0 0 127 0" result="hardAlpha"></feColorMatrix>
<feOffset dy="4"></feOffset>
<feGaussianBlur stdDeviation="2"></feGaussianBlur>
<feComposite in2="hardAlpha" operator="out"></feComposite>
<feColorMatrix type="matrix" values="0 0 0 0 0 0 0 0 0 0 0 0 0 0 0 0 0 0 0.25 0"></feColorMatrix>
<feBlend mode="normal" in2="BackgroundImageFix" result="effect1_dropShadow_272_33"></feBlend>
<feColorMatrix in="SourceAlpha" type="matrix" values="0 0 0 0 0 0 0 0 0 0 0 0 0 0 0 0 0 0 127 0" result="hardAlpha"></feColorMatrix>
<feOffset dy="4"></feOffset>
<feGaussianBlur stdDeviation="2"></feGaussianBlur>
<feComposite in2="hardAlpha" operator="out"></feComposite>
<feColorMatrix type="matrix" values="0 0 0 0 0 0 0 0 0 0 0 0 0 0 0 0 0 0 0.25 0"></feColorMatrix>
<feBlend mode="normal" in2="effect1_dropShadow_272_33" result="effect2_dropShadow_272_33"></feBlend>
<feBlend mode="normal" in="SourceGraphic" in2="effect2_dropShadow_272_33" result="shape"></feBlend>
</filter>
</defs>
</svg>