<?xml version="1.0" encoding="UTF-8"?> <svg xmlns="http://www.w3.org/2000/svg" width="212" height="77" viewBox="0 0 212 77" fill="none"><g clip-path="url(#clip0)"><path d="M123.213 42.9717H117.707L116.929 38.8888H111.518L109.714 42.9717H104.209L114.138 22.5762H118.808L123.213 42.9717ZM116.359 34.2907L115.752 28.319H115.543L113.303 34.2907H116.359Z" fill="white"></path><path d="M131.452 30.4554H139.673L139.046 35.0344H130.807L130.37 38.087H139.312L138.648 42.9522H124.542L127.39 22.5566H141.533L140.85 27.4218H131.908L131.452 30.4554Z" fill="white"></path><path d="M148.387 36.4848H147.476L146.583 42.9717H141.4L144.248 22.5762H152.355C156.55 22.5762 159.531 24.8275 158.943 29.6164C158.43 33.394 156.816 34.6532 154.044 35.9888L158.924 42.9908H152.526L148.387 36.4848ZM151.121 32.0394C152.696 32.0394 153.608 30.8565 153.76 29.6736C153.912 28.4334 153.304 27.365 151.785 27.365H148.767L148.102 32.0394H151.121Z" fill="white"></path><path d="M161.259 29.2725C161.942 24.5791 166.423 22.2705 170.637 22.2705C174.852 22.2705 178.744 24.5982 178.098 29.2725L177.092 36.2364C176.428 40.9108 172.099 43.2384 167.695 43.2384C163.48 43.2384 159.607 40.9108 160.271 36.2364L161.259 29.2725ZM165.397 36.2555C165.189 37.7246 166.707 38.4686 168.264 38.4686C169.935 38.4686 171.738 37.7246 171.966 36.1028L172.972 29.2725C173.2 27.7462 171.776 26.964 170.106 26.964C168.435 26.964 166.631 27.7462 166.404 29.2725L165.397 36.2555Z" fill="white"></path><path d="M181.915 36.6556C182.484 37.8385 183.718 38.3918 184.895 38.3918C186.281 38.3918 187.591 37.724 187.743 36.6365C187.895 35.6063 187.117 34.6714 185.655 34.6714H182.674L183.282 30.3786H186.319C187.629 30.3786 188.332 28.6996 187.876 27.8411C187.553 27.2305 186.927 26.9253 186.186 26.9253C185.18 26.9253 183.984 27.3832 183.149 28.2227L180.548 25.5707C182.522 23.491 184.99 22.2891 187.42 22.2891C189.888 22.2891 192.129 23.3766 192.983 26.0095V25.9713C193.609 27.9937 192.945 30.7793 190.724 32.0766C192.622 33.1451 192.964 35.4536 192.736 37.0372C192.186 41.0438 188.465 43.2951 184.687 43.257C182.105 43.2188 179.352 42.2839 178.213 39.7464L181.915 36.6556Z" fill="#009FE3"></path><path d="M204.772 22.5566C208.835 22.5566 212.366 24.6363 211.702 29.387L210.734 36.2363C210.069 40.9298 206.006 42.9522 201.925 42.9522H194.331L197.178 22.5566H204.772ZM202.76 38.1252C204.165 38.1252 205.418 37.3429 205.57 36.2554L206.538 29.406C206.69 28.2804 205.684 27.3836 204.279 27.3836H201.678L200.159 38.1252H202.76Z" fill="#009FE3"></path><path d="M104.209 53.5793C104.209 51.6714 105.576 50.126 107.455 50.126C109.449 50.126 110.607 51.6905 110.607 53.6747V53.9418H105.291C105.367 55.1819 106.24 56.2313 107.664 56.2313C108.404 56.2313 109.183 55.926 109.695 55.3918L110.189 56.0596C109.544 56.7082 108.651 57.0708 107.569 57.0708C105.614 57.0517 104.209 55.6398 104.209 53.5793ZM107.436 50.9655C106.031 50.9655 105.348 52.1484 105.291 53.1595H109.6C109.581 52.1865 108.936 50.9655 107.436 50.9655Z" fill="white"></path><path d="M116.682 56.8986V52.5677C116.682 51.4038 116.094 51.0413 115.22 51.0413C114.423 51.0413 113.663 51.5374 113.265 52.0716V56.8986H112.24V50.2782H113.265V51.2321C113.72 50.6788 114.632 50.1064 115.6 50.1064C116.967 50.1064 117.688 50.8124 117.688 52.2433V56.8795H116.682V56.8986Z" fill="white"></path><path d="M119.739 58.5966L120.251 57.8334C120.802 58.4821 121.447 58.7301 122.397 58.7301C123.479 58.7301 124.504 58.1959 124.504 56.7459V55.811C124.029 56.4788 123.232 56.9939 122.302 56.9939C120.593 56.9939 119.378 55.7156 119.378 53.5788C119.378 51.461 120.574 50.1445 122.302 50.1445C123.194 50.1445 123.972 50.5834 124.504 51.3084V50.2781H125.529V56.6886C125.529 58.8827 124.01 59.5696 122.397 59.5696C121.276 59.5696 120.517 59.3597 119.739 58.5966ZM124.504 54.9906V52.1097C124.143 51.5373 123.365 51.0412 122.548 51.0412C121.219 51.0412 120.441 52.0906 120.441 53.5597C120.441 55.0097 121.238 56.0781 122.548 56.0781C123.365 56.0781 124.143 55.563 124.504 54.9906Z" fill="white"></path><path d="M127.389 48.6571C127.389 48.2755 127.693 47.9512 128.073 47.9512C128.453 47.9512 128.775 48.2564 128.775 48.6571C128.775 49.0387 128.472 49.3439 128.073 49.3439C127.712 49.3439 127.389 49.0387 127.389 48.6571ZM127.56 56.8993V50.2788H128.585V56.8802H127.56V56.8993Z" fill="white"></path><path d="M135.059 56.8986V52.5677C135.059 51.4038 134.471 51.0413 133.597 51.0413C132.8 51.0413 132.041 51.5374 131.642 52.0716V56.8986H130.617V50.2782H131.642V51.2321C132.098 50.6788 133.009 50.1064 133.977 50.1064C135.344 50.1064 136.066 50.8124 136.066 52.2433V56.8795H135.059V56.8986Z" fill="white"></path><path d="M137.755 53.5793C137.755 51.6714 139.122 50.126 141.002 50.126C142.995 50.126 144.153 51.6905 144.153 53.6747V53.9418H138.838C138.913 55.1819 139.787 56.2313 141.211 56.2313C141.951 56.2313 142.729 55.926 143.242 55.3918L143.736 56.0596C143.09 56.7082 142.198 57.0708 141.116 57.0708C139.16 57.0517 137.755 55.6398 137.755 53.5793ZM140.983 50.9655C139.578 50.9655 138.894 52.1484 138.838 53.1595H143.147C143.128 52.1865 142.483 50.9655 140.983 50.9655Z" fill="white"></path><path d="M145.406 53.5793C145.406 51.6714 146.773 50.126 148.653 50.126C150.646 50.126 151.804 51.6905 151.804 53.6747V53.9418H146.489C146.564 55.1819 147.438 56.2313 148.862 56.2313C149.602 56.2313 150.38 55.926 150.893 55.3918L151.387 56.0596C150.741 56.7082 149.849 57.0708 148.767 57.0708C146.811 57.0517 145.406 55.6398 145.406 53.5793ZM148.634 50.9655C147.229 50.9655 146.545 52.1484 146.489 53.1595H150.798C150.798 52.1865 150.134 50.9655 148.634 50.9655Z" fill="white"></path><path d="M153.456 56.8985V50.2781H154.481V51.3465C155.012 50.6406 155.772 50.1445 156.664 50.1445V51.1939C156.55 51.1748 156.417 51.1557 156.246 51.1557C155.62 51.1557 154.766 51.6709 154.462 52.2051V56.8794H153.456V56.8985Z" fill="white"></path><path d="M157.785 48.6571C157.785 48.2755 158.088 47.9512 158.468 47.9512C158.848 47.9512 159.17 48.2564 159.17 48.6571C159.17 49.0387 158.867 49.3439 158.468 49.3439C158.088 49.3439 157.785 49.0387 157.785 48.6571ZM157.955 56.8993V50.2788H158.981V56.8802H157.955V56.8993Z" fill="white"></path><path d="M165.454 56.8986V52.5677C165.454 51.4038 164.866 51.0413 163.992 51.0413C163.195 51.0413 162.436 51.5374 162.037 52.0716V56.8986H161.012V50.2782H162.037V51.2321C162.493 50.6788 163.404 50.1064 164.372 50.1064C165.739 50.1064 166.461 50.8124 166.461 52.2433V56.8795H165.454V56.8986Z" fill="white"></path><path d="M168.511 58.5966L169.023 57.8334C169.574 58.4821 170.22 58.7301 171.169 58.7301C172.251 58.7301 173.276 58.1959 173.276 56.7459V55.811C172.801 56.4788 172.004 56.9939 171.074 56.9939C169.365 56.9939 168.15 55.7156 168.15 53.5788C168.15 51.461 169.346 50.1445 171.074 50.1445C171.966 50.1445 172.745 50.5834 173.276 51.3084V50.2781H174.301V56.6886C174.301 58.8827 172.782 59.5696 171.169 59.5696C170.049 59.5696 169.27 59.3597 168.511 58.5966ZM173.276 54.9906V52.1097C172.915 51.5373 172.137 51.0412 171.321 51.0412C169.992 51.0412 169.213 52.0906 169.213 53.5597C169.213 55.0097 170.011 56.0781 171.321 56.0781C172.118 56.0781 172.915 55.563 173.276 54.9906Z" fill="white"></path><path d="M94.5463 56.8224L39.224 37.3809L0.190796 57.4711L53.5956 76.9127L94.5463 56.8224Z" fill="#008AC5"></path><path d="M94.5463 44.0207L79.3393 51.4806L39.224 37.3812L14.7713 49.9734L0.190796 44.6694L39.224 24.5791L94.5463 44.0207Z" fill="#52C3F1"></path><path d="M79.3383 51.4813L53.5946 64.1116L14.7703 49.974L39.223 37.3818L79.3383 51.4813Z" fill="#00B0E4"></path><path d="M94.3555 30.092L39.0332 10.6504L0 30.7407L53.4048 50.1823L94.3555 30.092Z" fill="#9CD8F7"></path><path d="M25.3259 17.9967L40.2482 0.672852L46.6081 23.7013L25.3259 17.9967Z" fill="#9CD8F7"></path><path d="M40.2482 0.672852L47.2347 29.0434L65.802 20.1335L51.829 5.25183L48.3738 9.02949L40.2482 0.672852Z" fill="#008AC5"></path><path d="M28.3835 28.8518L0.190796 30.9315L10.006 19.1215L18.986 8.58984L28.3835 28.8518Z" fill="#9CD8F7"></path><path d="M36.736 27.9742L18.985 8.58984L24.8703 33.5834L36.736 27.9742Z" fill="#008AC5"></path><path d="M77.9903 17.406L71.7632 15.2119L67.3777 17.4632L73.377 19.6573L77.9903 17.406Z" fill="#52C3F1"></path><path d="M67.3777 17.4434V28.0513L73.3769 30.2454V19.6184L67.3777 17.4434Z" fill="#9CD8F7"></path><path d="M73.3771 19.6185L77.9905 17.3672V27.9752L73.3771 30.2456V19.6185Z" fill="#008AC5"></path><path d="M83.3443 23.7014L79.2815 22.2705L76.4148 23.7587L80.3447 25.1896L83.3443 23.7014Z" fill="#52C3F1"></path><path d="M76.4148 23.7588V30.6845L80.3447 32.1154V25.1897L76.4148 23.7588Z" fill="#9CD8F7"></path><path d="M80.3444 25.1893L83.344 23.7012V30.646L80.3444 32.1151V25.1893Z" fill="#008AC5"></path></g><defs><clipPath id="clip0"><rect width="211.778" height="76.24" fill="white" transform="translate(0 0.672852)"></rect></clipPath></defs></svg> 