<?xml version="1.0" encoding="UTF-8"?> <svg xmlns="http://www.w3.org/2000/svg" width="32" height="32" viewBox="0 0 32 32" fill="none"><path fill-rule="evenodd" clip-rule="evenodd" d="M16 31C24.2843 31 31 24.2843 31 16C31 7.71573 24.2843 1 16 1C7.71573 1 1 7.71573 1 16C1 24.2843 7.71573 31 16 31Z" stroke="#008AC5" stroke-width="1.5"></path><path fill-rule="evenodd" clip-rule="evenodd" d="M16 29.5C16 29.5 22 24.5909 22 16C22 7.40909 16 2.5 16 2.5C16 2.5 10 7.40909 10 16C10 24.5909 16 29.5 16 29.5Z" stroke="#008AC5" stroke-width="1.5"></path><path d="M1.75 11.5H30.25" stroke="#008AC5" stroke-width="1.5" stroke-linecap="round"></path><path d="M1.75 20.5H30.25" stroke="#008AC5" stroke-width="1.5" stroke-linecap="round"></path></svg> 