<?xml version="1.0" encoding="UTF-8"?> <svg xmlns="http://www.w3.org/2000/svg" width="65" height="65" viewBox="0 0 65 65" fill="none"><g clip-path="url(#clip0)"><path d="M56.2285 15.3398L54.9971 16.0038L9.34335 40.6288L6.17333 39.999L3.54108 39.4747C1.15829 38.9993 -0.389528 36.6849 0.0857856 34.3022L2.8978 20.1826L4.75767 10.8418L5.17065 8.76666C5.64596 6.38387 7.96185 4.83606 10.3446 5.31137L51.3828 13.4831L52.797 13.7653L53.8189 13.9688C54.7891 14.1618 55.618 14.6579 56.2285 15.3398Z" fill="#008AC5"></path><path d="M41.4381 18.147L26.907 24.9639L14.0292 22.3985L2.89844 20.1821L4.7583 10.8428L36.0413 17.073L41.4381 18.147Z" fill="white"></path><path d="M54.9968 16.0035L9.34315 40.6285L6.17312 39.9987L3.50519 28.9689C2.99713 26.8684 4.28659 24.7561 6.38704 24.248L50.4214 13.5925C50.7438 13.5153 51.0661 13.4797 51.3826 13.4826C51.8743 13.487 52.3527 13.5866 52.7967 13.7648C53.7861 14.1615 54.6001 14.9577 54.9968 16.0035Z" fill="#009CD0"></path><path d="M41.4362 18.1473L26.9051 24.9642L14.0273 22.3987L36.0394 17.0732L41.4362 18.1473Z" fill="#D1D2D7"></path><path d="M17.973 59.6639L62.0082 49.0095C64.1076 48.5015 65.3976 46.3879 64.8897 44.2885L58.5375 18.0341C58.0296 15.9347 55.9159 14.6447 53.8165 15.1525L9.78119 25.807C7.68176 26.3149 6.39179 28.4286 6.8996 30.528L13.2518 56.7823C13.7599 58.8816 15.8737 60.1718 17.973 59.6639Z" fill="#00B0E4"></path><path d="M61.3884 29.8217L9.75118 42.3155L7.51172 33.0592L59.1487 20.5654" fill="white"></path><path d="M59.7957 35.3359L44.582 39.0176L45.1062 41.1834L60.3198 37.5017L59.7957 35.3359Z" fill="#F7F7F7"></path><path d="M60.8212 40.1672L52.8281 42.1016L53.3522 44.2674L61.3453 42.333L60.8212 40.1672Z" fill="#F7F7F7"></path></g><defs><clipPath id="clip0"><rect width="65" height="65" fill="white"></rect></clipPath></defs></svg> 