<?xml version="1.0" encoding="UTF-8"?> <svg xmlns="http://www.w3.org/2000/svg" width="18" height="27" viewBox="0 0 18 27" fill="none"><path d="M9 25.6729L8.4569 26.1901L9 26.7604L9.54311 26.1901L9 25.6729ZM9 25.6729C9.54311 26.1901 9.54325 26.1899 9.54343 26.1898C9.54352 26.1897 9.54373 26.1894 9.54393 26.1892C9.54432 26.1888 9.54484 26.1883 9.54548 26.1876C9.54676 26.1862 9.54852 26.1844 9.55075 26.182C9.55521 26.1773 9.56158 26.1706 9.56978 26.1618C9.58618 26.1443 9.60994 26.1189 9.64056 26.0858C9.70179 26.0196 9.79049 25.9226 9.90273 25.7971C10.1272 25.5462 10.446 25.1811 10.8278 24.7198C11.5907 23.7979 12.6084 22.4878 13.6272 20.9341C15.6453 17.8565 17.75 13.7014 17.75 9.67285H16.25C16.25 13.2443 14.3547 17.0892 12.3728 20.1116C11.3917 21.6079 10.4093 22.8728 9.67221 23.7634C9.30399 24.2084 8.99783 24.5589 8.78477 24.797C8.67827 24.9161 8.59509 25.007 8.53913 25.0675C8.51116 25.0978 8.48999 25.1204 8.47612 25.1352C8.46919 25.1426 8.46408 25.148 8.46085 25.1514C8.45924 25.1531 8.4581 25.1543 8.45744 25.155C8.45711 25.1554 8.4569 25.1556 8.45681 25.1557C8.45676 25.1558 8.45678 25.1557 8.45676 25.1558C8.45681 25.1557 8.4569 25.1556 9 25.6729ZM0.25 9.67285C0.25 13.7014 2.3547 17.8565 4.37282 20.9341C5.39165 22.4878 6.40929 23.7979 7.17221 24.7198C7.55399 25.1811 7.87283 25.5462 8.09727 25.7971C8.20952 25.9226 8.29822 26.0196 8.35945 26.0858C8.39006 26.1189 8.41382 26.1443 8.43022 26.1618C8.43842 26.1706 8.44479 26.1773 8.44926 26.182C8.45149 26.1844 8.45325 26.1862 8.45452 26.1876C8.45516 26.1883 8.45568 26.1888 8.45608 26.1892C8.45627 26.1894 8.45648 26.1897 8.45658 26.1898C8.45675 26.1899 8.4569 26.1901 9 25.6729C9.54311 25.1556 9.54319 25.1557 9.54324 25.1558C9.54322 25.1557 9.54324 25.1558 9.5432 25.1557C9.54311 25.1556 9.5429 25.1554 9.54257 25.155C9.5419 25.1543 9.54076 25.1531 9.53915 25.1514C9.53593 25.148 9.53082 25.1426 9.52388 25.1352C9.51001 25.1204 9.48885 25.0978 9.46087 25.0675C9.40491 25.007 9.32174 24.9161 9.21523 24.797C9.00217 24.5589 8.69601 24.2084 8.3278 23.7634C7.59071 22.8728 6.60835 21.6079 5.62718 20.1116C3.6453 17.0892 1.75 13.2443 1.75 9.67285H0.25ZM9 0.922852C4.16751 0.922852 0.25 4.84036 0.25 9.67285H1.75C1.75 5.66879 4.99594 2.42285 9 2.42285V0.922852ZM17.75 9.67285C17.75 4.84036 13.8325 0.922852 9 0.922852V2.42285C13.0041 2.42285 16.25 5.66879 16.25 9.67285H17.75ZM9.09692 14.6159C11.2146 14.6159 12.9313 12.8992 12.9313 10.7816H11.4313C11.4313 12.0708 10.3861 13.1159 9.09692 13.1159V14.6159ZM5.26258 10.7816C5.26258 12.8992 6.97927 14.6159 9.09692 14.6159V13.1159C7.8077 13.1159 6.76258 12.0708 6.76258 10.7816H5.26258ZM9.09692 6.94723C6.97927 6.94723 5.26258 8.66392 5.26258 10.7816H6.76258C6.76258 9.49234 7.8077 8.44723 9.09692 8.44723V6.94723ZM12.9313 10.7816C12.9313 8.66392 11.2146 6.94723 9.09692 6.94723V8.44723C10.3861 8.44723 11.4313 9.49234 11.4313 10.7816H12.9313Z" fill="#008AC5"></path></svg> 