<?xml version="1.0" encoding="UTF-8"?> <svg xmlns="http://www.w3.org/2000/svg" width="65" height="91" viewBox="0 0 65 91" fill="none"><path fill-rule="evenodd" clip-rule="evenodd" d="M32.5 91C32.5 91 65 59.15 65 30.3333C65 13.5807 50.4493 0 32.5 0C14.5507 0 0 13.5807 0 30.3333C0 59.15 32.5 91 32.5 91Z" fill="#008AC5"></path><path fill-rule="evenodd" clip-rule="evenodd" d="M32.5 60C47.6878 60 60 47.6878 60 32.5C60 17.3122 47.6878 5 32.5 5C17.3122 5 5 17.3122 5 32.5C5 47.6878 17.3122 60 32.5 60Z" fill="white"></path><g clip-path="url(#clip0)"><path d="M50.4066 39.5634L30.2746 32.4434L16.0703 39.801L35.5045 46.9211L50.4066 39.5634Z" fill="#008AC5"></path><path d="M50.4066 34.875L44.8727 37.607L30.2746 32.4434L21.3762 37.055L16.0703 35.1125L30.2746 27.7549L50.4066 34.875Z" fill="#52C3F1"></path><path d="M44.8715 37.607L35.5033 42.2326L21.375 37.055L30.2734 32.4434L44.8715 37.607Z" fill="#00B0E4"></path><path d="M50.3363 29.7744L30.2043 22.6543L16 30.0119L35.4342 37.132L50.3363 29.7744Z" fill="#9CD8F7"></path><path d="M25.2168 25.3445L30.647 19L32.9615 27.4337L25.2168 25.3445Z" fill="#9CD8F7"></path><path d="M30.6465 19L33.1889 29.3901L39.9456 26.1271L34.8608 20.677L33.6034 22.0604L30.6465 19Z" fill="#008AC5"></path><path d="M26.3297 29.3199L16.0703 30.0816L19.6421 25.7564L22.9099 21.8994L26.3297 29.3199Z" fill="#9CD8F7"></path><path d="M29.3678 28.9985L22.9082 21.8994L25.0499 31.0528L29.3678 28.9985Z" fill="#008AC5"></path><path d="M44.3815 25.1278L42.1154 24.3242L40.5195 25.1487L42.7027 25.9523L44.3815 25.1278Z" fill="#52C3F1"></path><path d="M40.5195 25.1416V29.0265L42.7027 29.8301V25.9382L40.5195 25.1416Z" fill="#9CD8F7"></path><path d="M42.7031 25.9378L44.382 25.1133V28.9982L42.7031 29.8297V25.9378Z" fill="#008AC5"></path><path d="M46.3283 27.4332L44.8499 26.9092L43.8066 27.4542L45.2367 27.9782L46.3283 27.4332Z" fill="#52C3F1"></path><path d="M43.8066 27.4551V29.9915L45.2367 30.5155V27.9791L43.8066 27.4551Z" fill="#9CD8F7"></path><path d="M45.2383 27.9786L46.3299 27.4336V29.977L45.2383 30.515V27.9786Z" fill="#008AC5"></path></g><defs><clipPath id="clip0"><rect width="34" height="28" fill="white" transform="translate(16 19)"></rect></clipPath></defs></svg> 