<?xml version="1.0" encoding="UTF-8"?> <svg xmlns="http://www.w3.org/2000/svg" width="154" height="55" viewBox="0 0 154 55" fill="none"><g clip-path="url(#clip0)"><path d="M89.0643 30.5142H85.0845L84.5219 27.5688H80.6107L79.307 30.5142H75.3273L82.5046 15.8008H85.8805L89.0643 30.5142ZM84.1102 24.2517L83.671 19.9437H83.5201L81.9007 24.2517H84.1102Z" fill="#004463"></path><path d="M95.0201 21.4853H100.962L100.509 24.7886H94.5535L94.2378 26.9908H100.702L100.221 30.5006H90.0248L92.0833 15.7871H102.307L101.813 19.2969H95.3494L95.0201 21.4853Z" fill="#004463"></path><path d="M107.261 25.8346H106.603L105.958 30.5142H102.211L104.27 15.8008H110.129C113.162 15.8008 115.317 17.4249 114.891 20.8796C114.521 23.6048 113.354 24.5132 111.351 25.4767L114.878 30.528H110.253L107.261 25.8346ZM109.237 22.6276C110.376 22.6276 111.035 21.7743 111.145 20.9209C111.255 20.0263 110.816 19.2555 109.718 19.2555H107.536L107.055 22.6276H109.237Z" fill="#004463"></path><path d="M116.566 20.6319C117.06 17.246 120.298 15.5806 123.345 15.5806C126.392 15.5806 129.205 17.2597 128.738 20.6319L128.011 25.6556C127.531 29.0278 124.402 30.7069 121.218 30.7069C118.171 30.7069 115.372 29.0278 115.852 25.6556L116.566 20.6319ZM119.557 25.6694C119.406 26.7292 120.504 27.266 121.63 27.266C122.837 27.266 124.141 26.7292 124.306 25.5593L125.033 20.6319C125.198 19.5308 124.168 18.9665 122.961 18.9665C121.753 18.9665 120.449 19.5308 120.285 20.6319L119.557 25.6694Z" fill="#004463"></path><path d="M131.497 25.9584C131.909 26.8117 132.801 27.2109 133.651 27.2109C134.653 27.2109 135.6 26.7291 135.71 25.9446C135.82 25.2013 135.257 24.5269 134.2 24.5269H132.046L132.485 21.4301H134.681C135.628 21.4301 136.135 20.2189 135.806 19.5995C135.573 19.1591 135.12 18.9388 134.585 18.9388C133.857 18.9388 132.993 19.2692 132.389 19.8748L130.509 17.9616C131.936 16.4614 133.72 15.5942 135.477 15.5942C137.261 15.5942 138.88 16.3788 139.498 18.2782V18.2506C139.95 19.7096 139.47 21.7191 137.864 22.655C139.237 23.4258 139.484 25.0912 139.319 26.2336C138.921 29.124 136.231 30.7481 133.5 30.7206C131.634 30.6931 129.644 30.0187 128.821 28.1881L131.497 25.9584Z" fill="#009FE3"></path><path d="M148.02 15.7871C150.957 15.7871 153.509 17.2874 153.029 20.7145L152.329 25.6557C151.849 29.0416 148.912 30.5006 145.961 30.5006H140.472L142.53 15.7871H148.02ZM146.565 27.0183C147.581 27.0183 148.486 26.454 148.596 25.6695L149.296 20.7283C149.406 19.9162 148.678 19.2693 147.663 19.2693H145.783L144.685 27.0183H146.565Z" fill="#009FE3"></path><path d="M75.3273 38.167C75.3273 36.7906 76.3153 35.6758 77.674 35.6758C79.1149 35.6758 79.952 36.8044 79.952 38.2358V38.4285H76.1095C76.1644 39.3232 76.7957 40.0802 77.8249 40.0802C78.3601 40.0802 78.9228 39.86 79.2933 39.4746L79.6501 39.9563C79.1835 40.4243 78.5385 40.6858 77.7563 40.6858C76.3428 40.672 75.3273 39.6535 75.3273 38.167ZM77.6602 36.2814C76.6447 36.2814 76.1507 37.1347 76.1095 37.8642H79.2247C79.211 37.1623 78.7444 36.2814 77.6602 36.2814Z" fill="#004463"></path><path d="M84.3436 40.562V37.4376C84.3436 36.598 83.9181 36.3365 83.2869 36.3365C82.7105 36.3365 82.1616 36.6944 81.8734 37.0798V40.562H81.1323V35.786H81.8734V36.4742C82.2027 36.075 82.8615 35.6621 83.5613 35.6621C84.5494 35.6621 85.0709 36.1714 85.0709 37.2037V40.5483H84.3436V40.562Z" fill="#004463"></path><path d="M86.553 41.7868L86.9235 41.2363C87.3215 41.7042 87.7881 41.8832 88.4742 41.8832C89.2565 41.8832 89.9975 41.4978 89.9975 40.4517V39.7773C89.6544 40.259 89.0781 40.6307 88.4056 40.6307C87.1705 40.6307 86.2922 39.7085 86.2922 38.1669C86.2922 36.6392 87.1568 35.6895 88.4056 35.6895C89.0506 35.6895 89.6133 36.006 89.9975 36.529V35.7858H90.7386V40.4104C90.7386 41.9933 89.6407 42.4888 88.4742 42.4888C87.6646 42.4888 87.1156 42.3374 86.553 41.7868ZM89.9975 39.1855V37.1071C89.7368 36.6942 89.1741 36.3364 88.584 36.3364C87.6234 36.3364 87.0607 37.0934 87.0607 38.1532C87.0607 39.1992 87.6371 39.97 88.584 39.97C89.1741 39.97 89.7368 39.5984 89.9975 39.1855Z" fill="#004463"></path><path d="M92.0835 34.6162C92.0835 34.3409 92.3031 34.1069 92.5775 34.1069C92.852 34.1069 93.0853 34.3272 93.0853 34.6162C93.0853 34.8915 92.8657 35.1117 92.5775 35.1117C92.3168 35.1117 92.0835 34.8915 92.0835 34.6162ZM92.207 40.5621V35.7861H92.9481V40.5484H92.207V40.5621Z" fill="#004463"></path><path d="M97.6278 40.562V37.4376C97.6278 36.598 97.2023 36.3365 96.5711 36.3365C95.9947 36.3365 95.4458 36.6944 95.1576 37.0798V40.562H94.4165V35.786H95.1576V36.4742C95.4869 36.075 96.1456 35.6621 96.8455 35.6621C97.8336 35.6621 98.3551 36.1714 98.3551 37.2037V40.5483H97.6278V40.562Z" fill="#004463"></path><path d="M99.5764 38.167C99.5764 36.7906 100.564 35.6758 101.923 35.6758C103.364 35.6758 104.201 36.8044 104.201 38.2358V38.4285H100.359C100.414 39.3232 101.045 40.0802 102.074 40.0802C102.609 40.0802 103.172 39.86 103.542 39.4746L103.899 39.9563C103.433 40.4243 102.788 40.6858 102.005 40.6858C100.592 40.672 99.5764 39.6535 99.5764 38.167ZM101.909 36.2814C100.894 36.2814 100.4 37.1347 100.359 37.8642H103.474C103.46 37.1623 102.994 36.2814 101.909 36.2814Z" fill="#004463"></path><path d="M105.107 38.167C105.107 36.7906 106.095 35.6758 107.454 35.6758C108.894 35.6758 109.732 36.8044 109.732 38.2358V38.4285H105.889C105.944 39.3232 106.575 40.0802 107.604 40.0802C108.14 40.0802 108.702 39.86 109.073 39.4746L109.43 39.9563C108.963 40.4243 108.318 40.6858 107.536 40.6858C106.122 40.672 105.107 39.6535 105.107 38.167ZM107.44 36.2814C106.424 36.2814 105.93 37.1347 105.889 37.8642H109.004C109.004 37.1623 108.524 36.2814 107.44 36.2814Z" fill="#004463"></path><path d="M110.925 40.5618V35.7858H111.666V36.5566C112.051 36.0473 112.6 35.6895 113.245 35.6895V36.4465C113.162 36.4327 113.066 36.4189 112.943 36.4189C112.49 36.4189 111.872 36.7906 111.653 37.1759V40.5481H110.925V40.5618Z" fill="#004463"></path><path d="M114.054 34.6162C114.054 34.3409 114.274 34.1069 114.548 34.1069C114.823 34.1069 115.056 34.3272 115.056 34.6162C115.056 34.8915 114.837 35.1117 114.548 35.1117C114.274 35.1117 114.054 34.8915 114.054 34.6162ZM114.178 40.5621V35.7861H114.919V40.5484H114.178V40.5621Z" fill="#004463"></path><path d="M119.599 40.562V37.4376C119.599 36.598 119.173 36.3365 118.542 36.3365C117.966 36.3365 117.417 36.6944 117.128 37.0798V40.562H116.387V35.786H117.128V36.4742C117.458 36.075 118.116 35.6621 118.816 35.6621C119.804 35.6621 120.326 36.1714 120.326 37.2037V40.5483H119.599V40.562Z" fill="#004463"></path><path d="M121.808 41.7868L122.179 41.2363C122.577 41.7042 123.043 41.8832 123.729 41.8832C124.512 41.8832 125.253 41.4978 125.253 40.4517V39.7773C124.91 40.259 124.333 40.6307 123.661 40.6307C122.426 40.6307 121.547 39.7085 121.547 38.1669C121.547 36.6392 122.412 35.6895 123.661 35.6895C124.306 35.6895 124.868 36.006 125.253 36.529V35.7858H125.994V40.4104C125.994 41.9933 124.896 42.4888 123.729 42.4888C122.92 42.4888 122.357 42.3374 121.808 41.7868ZM125.253 39.1855V37.1071C124.992 36.6942 124.429 36.3364 123.839 36.3364C122.879 36.3364 122.316 37.0934 122.316 38.1532C122.316 39.1992 122.892 39.97 123.839 39.97C124.416 39.97 124.992 39.5984 125.253 39.1855Z" fill="#004463"></path><path d="M68.3425 40.5067L28.3528 26.4814L0.137695 40.9747L38.7413 55L68.3425 40.5067Z" fill="#008AC5"></path><path d="M68.3425 31.2714L57.3501 36.653L28.3528 26.4816L10.6772 35.5657L0.137695 31.7393L28.3528 17.2461L68.3425 31.2714Z" fill="#52C3F1"></path><path d="M57.3497 36.6534L38.7409 45.765L10.6768 35.566L28.3524 26.4819L57.3497 36.6534Z" fill="#00B0E4"></path><path d="M68.2048 21.2235L28.2151 7.19824L0 21.6915L38.6036 35.7168L68.2048 21.2235Z" fill="#9CD8F7"></path><path d="M18.3069 12.4975L29.0934 0L33.6907 16.6129L18.3069 12.4975Z" fill="#9CD8F7"></path><path d="M29.0933 0L34.1434 20.4667L47.5648 14.039L37.4645 3.3033L34.9668 6.02853L29.0933 0Z" fill="#008AC5"></path><path d="M20.5168 20.3285L0.137695 21.8288L7.23264 13.309L13.7238 5.71143L20.5168 20.3285Z" fill="#9CD8F7"></path><path d="M26.5544 19.6954L13.7231 5.71143L17.9774 23.742L26.5544 19.6954Z" fill="#008AC5"></path><path d="M56.3751 12.0706L51.8738 10.4878L48.7037 12.1119L53.0403 13.6948L56.3751 12.0706Z" fill="#52C3F1"></path><path d="M48.7037 12.0981V19.7508L53.0403 21.3336V13.6672L48.7037 12.0981Z" fill="#9CD8F7"></path><path d="M53.0406 13.6671L56.3754 12.043V19.6956L53.0406 21.3335V13.6671Z" fill="#008AC5"></path><path d="M60.2453 16.6129L57.3085 15.5806L55.2363 16.6541L58.077 17.6864L60.2453 16.6129Z" fill="#52C3F1"></path><path d="M55.2363 16.6543V21.6505L58.0771 22.6828V17.6866L55.2363 16.6543Z" fill="#9CD8F7"></path><path d="M58.0769 17.6864L60.2452 16.6128V21.6228L58.0769 22.6826V17.6864Z" fill="#008AC5"></path></g><defs><clipPath id="clip0"><rect width="153.083" height="55" fill="white"></rect></clipPath></defs></svg> 