<?xml version="1.0" encoding="UTF-8"?> <svg xmlns="http://www.w3.org/2000/svg" width="30" height="31" viewBox="0 0 30 31" fill="none"><path d="M29.0625 15.3125H24.8125C23.7079 15.3125 22.8125 16.2079 22.8125 17.3125V22.6875C22.8125 23.7921 23.7079 24.6875 24.8125 24.6875H27.0625C28.1671 24.6875 29.0625 23.7921 29.0625 22.6875V15.3125C29.0625 7.546 22.7665 1.25 15 1.25C7.2335 1.25 0.9375 7.546 0.9375 15.3125V22.6875C0.9375 23.7921 1.83293 24.6875 2.9375 24.6875H5.1875C6.29207 24.6875 7.1875 23.7921 7.1875 22.6875V17.3125C7.1875 16.2079 6.29207 15.3125 5.1875 15.3125H0.9375" stroke="#008AC5" stroke-width="1.5"></path><path d="M29.0625 18.4375V24.6875C29.0625 24.6875 29.0625 29.375 25.9375 29.375C22.8125 29.375 18.125 29.375 18.125 29.375" stroke="#008AC5" stroke-width="1.5" stroke-linejoin="round"></path></svg> 