<?xml version="1.0" encoding="UTF-8"?> <svg xmlns="http://www.w3.org/2000/svg" width="91" height="70" viewBox="0 0 91 70" fill="none"><path d="M53.8131 39.675V4.2959H80.8466L91 27.6714V53.1948H79.7043C77.5467 49.1515 73.3584 46.4981 68.5356 46.4981C63.7127 46.4981 59.5244 49.2778 57.3668 53.1948H29.318C27.1604 49.1515 22.9721 46.4981 18.1492 46.4981C13.3264 46.4981 9.13808 49.2778 6.98048 53.1948H-0.253845V39.675H53.8131Z" fill="#008AC5"></path><path d="M4.31316 0H48.7344V39.5487H4.31316V0Z" fill="#00B0E4"></path><path d="M68.1549 28.6826C66.3781 28.6826 64.982 27.2927 64.982 25.5237V12.8883C64.982 11.1194 66.3781 9.72949 68.1549 9.72949H72.7239C74.5008 9.72949 76.4046 10.993 77.0391 12.6356L82.1159 25.7764C82.7504 27.419 81.862 28.6826 80.0852 28.6826H68.1549Z" fill="#FFF2DE"></path><path d="M68.1566 29.5667H80.2137C81.356 29.5667 82.2444 29.0613 82.879 28.3032C83.3867 27.5451 83.3867 26.5343 83.0059 25.3971L77.8023 12.3826C77.0408 10.361 74.7563 8.84473 72.5987 8.84473H68.1566C65.872 8.84473 64.0952 10.6137 64.0952 12.888V25.5234C64.0952 27.7978 65.872 29.5667 68.1566 29.5667ZM72.5987 10.6137C73.9948 10.6137 75.6447 11.7509 76.1524 13.0144L81.356 26.0288C81.6098 26.5343 81.6098 27.0397 81.356 27.2924C81.1022 27.6714 80.7214 27.7978 80.2137 27.7978H68.1566C66.8874 27.7978 65.872 26.787 65.872 25.5234V12.888C65.872 11.6245 66.8874 10.6137 68.1566 10.6137H72.5987Z" fill="#00B0E4"></path><path d="M7.86517 58.8815C7.86517 64.5674 12.5611 69.2425 18.2724 69.2425C23.9837 69.2425 28.6797 64.5674 28.6797 58.8815C28.6797 53.1956 23.9837 48.5205 18.2724 48.5205C12.5611 48.5205 7.86517 53.1956 7.86517 58.8815Z" fill="#2E384C"></path><path d="M18.2746 70.0002C24.3666 70.0002 29.3164 65.0724 29.3164 59.0074C29.3164 52.9424 24.3666 48.0146 18.2746 48.0146C12.1825 48.0146 7.23272 52.9424 7.23272 59.0074C7.23272 64.9461 12.1825 70.0002 18.2746 70.0002ZM18.2746 49.1518C23.732 49.1518 28.0472 53.5742 28.0472 58.8811C28.0472 64.3143 23.6051 68.6103 18.2746 68.6103C12.944 68.6103 8.5019 64.1879 8.5019 58.8811C8.5019 53.5742 12.944 49.1518 18.2746 49.1518Z" fill="#2E384C"></path><path d="M18.271 64.1879C21.1901 64.1879 23.6016 61.7872 23.6016 58.8811C23.6016 55.9749 21.1901 53.5742 18.271 53.5742C15.3519 53.5742 12.9405 55.9749 12.9405 58.8811C13.0674 61.7872 15.3519 64.1879 18.271 64.1879Z" fill="#EBEBED"></path><path d="M18.2732 64.8196C21.573 64.8196 24.2383 62.1662 24.2383 58.881C24.2383 55.5958 21.573 52.9424 18.2732 52.9424C14.9733 52.9424 12.308 55.5958 12.308 58.881C12.4349 62.1662 15.1002 64.8196 18.2732 64.8196ZM18.2732 54.3323C20.8115 54.3323 22.9691 56.4803 22.9691 59.0074C22.9691 61.5344 20.9384 63.6824 18.2732 63.6824C15.7348 63.6824 13.5772 61.5344 13.5772 59.0074C13.7041 56.3539 15.7348 54.3323 18.2732 54.3323Z" fill="#C2C2C2"></path><path d="M58.1269 58.881C58.1269 64.5669 62.8229 69.242 68.5342 69.242C74.2455 69.242 78.9414 64.5669 78.9414 58.881C78.9414 53.1951 74.2455 48.52 68.5342 48.52C62.8229 48.52 58.1269 53.1951 58.1269 58.881Z" fill="#2E384C"></path><path d="M68.6613 70.0002C74.7533 70.0002 79.7031 65.0724 79.7031 59.0074C79.7031 52.9424 74.7533 48.0146 68.6613 48.0146C62.5692 48.0146 57.6194 52.9424 57.6194 59.0074C57.4925 64.9461 62.5692 70.0002 68.6613 70.0002ZM68.6613 49.1518C74.1187 49.1518 78.4339 53.5742 78.4339 58.8811C78.4339 64.3143 73.9918 68.6103 68.6613 68.6103C63.2038 68.6103 58.8886 64.1879 58.8886 58.8811C58.7617 53.5742 63.2038 49.1518 68.6613 49.1518Z" fill="#2E384C"></path><path d="M68.6577 64.1879C71.5768 64.1879 73.9883 61.7872 73.9883 58.8811C73.9883 55.9749 71.5768 53.5742 68.6577 53.5742C65.7386 53.5742 63.3272 55.9749 63.3272 58.8811C63.3272 61.7872 65.7386 64.1879 68.6577 64.1879Z" fill="#EBEBED"></path><path d="M68.6599 64.8196C71.9597 64.8196 74.625 62.1662 74.625 58.881C74.625 55.5958 71.9597 52.9424 68.6599 52.9424C65.36 52.9424 62.6947 55.5958 62.6947 58.881C62.6947 62.1662 65.36 64.8196 68.6599 64.8196ZM68.6599 54.3323C71.1982 54.3323 73.3558 56.4803 73.3558 59.0074C73.3558 61.5344 71.1982 63.6824 68.6599 63.6824C66.1215 63.6824 63.9639 61.5344 63.9639 59.0074C63.9639 56.3539 65.9946 54.3323 68.6599 54.3323Z" fill="#C2C2C2"></path><path d="M1.14155 40.686H88.4609V45.1084H1.14155V40.686Z" fill="#00B0E4"></path><path d="M48.7371 0H51.4023V39.5487H48.7371V0Z" fill="#9CD8F7"></path><path d="M43.405 0H46.0703V39.5487H43.405V0Z" fill="#9CD8F7"></path><path d="M38.2019 0H40.8672V39.5487H38.2019V0Z" fill="#9CD8F7"></path><path d="M32.9988 0H35.6641V39.5487H32.9988V0Z" fill="#9CD8F7"></path><path d="M27.7957 0H30.4609V39.5487H27.7957V0Z" fill="#9CD8F7"></path><path d="M22.5925 0H25.2578V39.5487H22.5925V0Z" fill="#9CD8F7"></path><path d="M17.2605 0H19.9258V39.5487H17.2605V0Z" fill="#9CD8F7"></path><path d="M12.0574 0H14.7227V39.5487H12.0574V0Z" fill="#9CD8F7"></path><path d="M6.85426 0H9.51953V39.5487H6.85426V0Z" fill="#9CD8F7"></path><path d="M1.65113 0H4.31641V39.5487H1.65113V0Z" fill="#9CD8F7"></path></svg> 