<?xml version="1.0" encoding="UTF-8"?> <svg xmlns="http://www.w3.org/2000/svg" width="32" height="32" viewBox="0 0 32 32" fill="none"><path d="M10 16.75L13.75 20.5L22 12.25" stroke="#008AC5" stroke-width="1.5" stroke-linecap="round"></path><path d="M16 31C18.0296 31 19.7454 29.6563 20.3064 27.81C20.4258 27.4168 20.9434 27.2024 21.3058 27.396C23.008 28.3049 25.1714 28.0418 26.6066 26.6066C28.0418 25.1715 28.3049 23.0081 27.3959 21.3059C27.2024 20.9434 27.4168 20.4258 27.8099 20.3064C29.6563 19.7455 31 18.0296 31 16C31 13.9704 29.6563 12.2546 27.81 11.6936C27.4168 11.5742 27.2024 11.0566 27.396 10.6942C28.3049 8.99197 28.0418 6.82858 26.6066 5.39341C25.1715 3.95823 23.0081 3.69512 21.3059 4.60406C20.9434 4.79762 20.4258 4.58323 20.3064 4.19005C19.7454 2.3437 18.0296 1 16 1C13.9704 1 12.2546 2.34368 11.6937 4.19001C11.5742 4.58319 11.0566 4.79757 10.6942 4.60401C8.99197 3.69508 6.82858 3.9582 5.39341 5.39337C3.95823 6.82854 3.69512 8.99194 4.60406 10.6941C4.79762 11.0566 4.58324 11.5742 4.19005 11.6936C2.3437 12.2546 1 13.9704 1 16C1 18.0296 2.34368 19.7454 4.19001 20.3063C4.58319 20.4258 4.79757 20.9434 4.60401 21.3058C3.69508 23.008 3.9582 25.1714 5.39337 26.6066C6.82854 28.0418 8.99194 28.3049 10.6941 27.3959C11.0566 27.2024 11.5742 27.4168 11.6936 27.8099C12.2545 29.6563 13.9704 31 16 31Z" stroke="#008AC5" stroke-width="1.5" stroke-linecap="round"></path></svg> 