<?xml version="1.0" encoding="UTF-8"?> <svg xmlns="http://www.w3.org/2000/svg" width="18" height="17" viewBox="0 0 18 17" fill="none"><path d="M6.26648 8.875L8.15565 10.75L12.3118 6.625" stroke="white" stroke-width="1.5" stroke-linecap="round"></path><path d="M9.2891 16C10.1363 16 10.875 15.5387 11.2641 14.8554C11.4669 14.4992 12.0207 14.2689 12.4156 14.3787C13.1788 14.591 14.0321 14.3992 14.6325 13.8033C15.2291 13.2112 15.4236 12.371 15.2161 11.6172C15.1068 11.22 15.3377 10.6602 15.6965 10.4579C16.3828 10.0712 16.8458 9.33924 16.8458 8.5C16.8458 7.66076 16.3828 6.92883 15.6966 6.54207C15.3377 6.33983 15.1068 5.77999 15.2161 5.38286C15.4237 4.62899 15.2291 3.78887 14.6325 3.1967C14.0321 2.60086 13.1789 2.40907 12.4157 2.62132C12.0207 2.73116 11.4669 2.5008 11.2641 2.14456C10.875 1.46126 10.1363 1 9.2891 1C8.44188 1 7.7032 1.46126 7.31411 2.14456C7.11126 2.50079 6.55749 2.73114 6.16254 2.6213C5.39936 2.40905 4.54607 2.60084 3.94572 3.19668C3.34909 3.78885 3.15454 4.62896 3.36208 5.38283C3.47141 5.77997 3.24049 6.33983 2.88164 6.54207C2.19538 6.92883 1.73242 7.66076 1.73242 8.5C1.73242 9.33924 2.19538 10.0712 2.88164 10.4579C3.24049 10.6602 3.47139 11.22 3.36206 11.6171C3.15452 12.371 3.34906 13.2111 3.94571 13.8033C4.54605 14.3991 5.39933 14.5909 6.16251 14.3787C6.55747 14.2688 7.11125 14.4992 7.31411 14.8554C7.7032 15.5387 8.44187 16 9.2891 16Z" stroke="white" stroke-width="1.5" stroke-linecap="round"></path></svg> 