<?xml version="1.0" encoding="UTF-8"?> <svg xmlns="http://www.w3.org/2000/svg" width="65" height="65" viewBox="0 0 65 65" fill="none"><path d="M60.3571 16.25H58.0357H51.0714H13.9286H7.08036H4.64286C3.36607 16.25 2.20536 16.8304 1.39286 17.6429C0.580357 18.4554 0 19.6161 0 20.8929V58.0357C0 60.5893 2.08929 62.6786 4.64286 62.6786H60.3571C62.9107 62.6786 65 60.5893 65 58.0357V48.75V39.4643V20.8929C65 18.3393 62.9107 16.25 60.3571 16.25Z" fill="#008AC5"></path><path d="M65 20.8929C65 22.1696 64.4196 23.3304 63.6071 24.1429C62.7946 24.9554 61.6339 25.5357 60.3571 25.5357H4.64286C2.08929 25.5357 0 23.4464 0 20.8929C0 19.6161 0.580357 18.4554 1.39286 17.6429C2.20536 16.8304 3.36607 16.25 4.64286 16.25H60.3571C62.9107 16.25 65 18.3393 65 20.8929Z" fill="#00B0E4"></path><path d="M64.9994 39.4639H46.428L41.7852 44.1067L46.428 48.7496H64.9994V39.4639Z" fill="#00B0E4"></path><path d="M48.7472 46.429C50.0293 46.429 51.0686 45.3897 51.0686 44.1076C51.0686 42.8255 50.0293 41.7861 48.7472 41.7861C47.4651 41.7861 46.4258 42.8255 46.4258 44.1076C46.4258 45.3897 47.4651 46.429 48.7472 46.429Z" fill="white"></path><path d="M13.9258 25.5356L32.4972 6.96415L37.1401 2.32129L60.3544 25.5356H13.9258Z" fill="#9CD8F7"></path><path d="M26.8125 25.5354C29.3661 23.214 33.0804 20.8926 37.1429 20.8926C41.3214 20.8926 44.9196 23.214 47.4732 25.5354H26.8125Z" fill="#F3E4FF"></path><path d="M4.64453 25.5356L23.216 6.96415L27.8588 2.32129L51.0731 25.5356H4.64453Z" fill="#6BDCFF"></path><path d="M17.5273 25.5354C20.0809 23.214 23.7952 20.8926 27.8577 20.8926C32.0363 20.8926 35.6345 23.214 38.1881 25.5354H17.5273Z" fill="white"></path></svg> 