<svg width="70" height="17.7" viewBox="0 0 600 152" fill="none" xmlns="http://www.w3.org/2000/svg">
<path d="M395.702 122.784C397.445 123.823 399.153 124.862 400.866 124.871C423.197 124.98 445.529 124.943 467.861 124.943C469.639 124.943 471.417 124.943 473.502 124.943C473.502 130.478 473.502 135.389 473.502 140.658C441.61 140.658 409.864 140.658 377.493 140.658C377.413 138.982 377.256 137.229 377.256 135.475C377.242 95.9783 377.319 56.4808 377.146 16.9844C377.126 12.3691 378.417 11.0735 383.036 11.1081C410.866 11.3162 438.698 11.2079 466.53 11.2207C468.162 11.2215 469.794 11.3545 471.767 11.4408C471.767 16.9275 471.767 22.1349 471.767 27.9153C446.465 27.9153 421.391 27.9153 395.697 27.9153C395.697 40.2468 395.605 52.019 395.89 63.782C395.911 64.6357 398.67 66.1182 400.169 66.1341C416.333 66.3057 432.499 66.2415 448.664 66.2418C453.331 66.2419 458.001 66.3562 462.662 66.2006C465.611 66.1021 466.973 67.0701 466.822 70.1918C466.646 73.8283 466.781 77.4799 466.781 81.816C443.059 81.816 419.689 81.816 395.669 81.816C395.669 95.7684 395.669 109.037 395.702 122.784Z" fill="#7397E7"/>
<path d="M519.114 124.142C515.724 129.114 512.608 133.839 509.306 138.431C508.527 139.514 507.147 140.832 506 140.874C499.583 141.109 493.154 140.987 485.687 140.987C490.563 133.945 494.866 127.696 499.204 121.471C509.196 107.129 519.13 92.7444 529.272 78.5087C531.354 75.5862 531.296 73.4924 529.263 70.5891C517.141 53.2755 505.195 35.8384 493.2 18.4352C491.803 16.4081 490.473 14.3345 488.484 11.3352C496.299 11.3352 503.185 11.1402 510.042 11.504C511.373 11.5746 512.842 13.6522 513.816 15.095C522.85 28.4767 531.785 41.9251 540.762 55.3447C541.657 56.6822 542.645 57.9572 544.078 59.9351C548.78 52.9387 553.127 46.5296 557.412 40.0785C563.12 31.4828 568.699 22.7992 574.541 14.2954C575.501 12.8972 577.477 11.4504 579.061 11.359C585.028 11.0146 591.026 11.2208 598.169 11.2208C596.286 14.1307 594.887 16.4164 593.369 18.6205C581.287 36.165 569.246 53.7388 557.017 71.1802C555.156 73.8344 555.291 75.5111 557.104 78.1218C570.679 97.6671 584.066 117.343 597.499 136.986C598.22 138.04 598.83 139.169 599.934 140.995C592.649 140.995 586.061 141.21 579.507 140.832C578.015 140.746 576.259 138.865 575.272 137.38C564.68 121.448 554.217 105.43 543.15 88.567C535.008 100.622 527.165 112.234 519.114 124.142Z" fill="#7296E6"/>
<path d="M174.731 60.6347C180.601 45.0068 186.253 29.7098 192.201 14.5285C192.776 13.0588 195.051 11.9001 196.778 11.3374C198.435 10.7975 200.406 11.2208 202.239 11.2208C213.924 11.2208 213.818 11.2591 217.687 21.9974C231.334 59.8757 245.062 97.7247 258.748 135.589C259.295 137.104 259.726 138.662 260.457 140.982C254 140.982 248.219 141.187 242.477 140.808C241.338 140.733 239.882 138.584 239.362 137.112C235.876 127.227 232.452 117.314 229.338 107.307C228.187 103.607 226.628 101.953 222.427 102.048C209.268 102.347 196.092 102.381 182.936 102.037C178.362 101.917 176.487 103.725 175.154 107.713C171.99 117.179 168.27 126.463 165.208 135.96C163.896 140.03 161.826 141.447 157.671 141.083C153.584 140.725 149.442 141.005 144.448 141.005C154.686 113.834 164.641 87.4158 174.731 60.6347ZM185.199 79.7547C184.423 82.2193 183.647 84.6838 182.802 87.371C196.07 87.371 208.719 87.371 221.75 87.371C215.442 69.0218 209.306 51.1682 202.703 31.959C196.641 48.5564 191.077 63.7908 185.199 79.7547Z" fill="#7196E6"/>
<path d="M275.9 100C275.9 70.3508 275.9 41.2016 275.9 11.6405C281.95 11.6405 287.655 11.6405 293.964 11.6405C293.964 49.3412 293.964 86.8957 293.964 124.953C299.337 124.953 304.128 124.953 308.918 124.953C324.251 124.954 339.584 125.024 354.915 124.897C358.108 124.871 359.471 125.772 359.264 129.127C359.032 132.894 359.211 136.686 359.211 140.724C331.317 140.724 304.047 140.724 275.9 140.724C275.9 127.316 275.9 113.908 275.9 100Z" fill="#7095E6"/>
<mask id="path-5-outside-1_162_90" maskUnits="userSpaceOnUse" x="0" y="0" width="128" height="152" fill="black">
<rect fill="white" width="128" height="152"/>
<path fill-rule="evenodd" clip-rule="evenodd" d="M62.6731 1.46051C63.177 1.18617 63.7409 1.03838 64.3154 1.02993L64.3104 1.00032C65.0407 0.990543 65.7561 1.2064 66.3576 1.61787C66.9591 2.02934 67.4174 2.61609 67.6682 3.29729C74.5227 12.3407 94.1673 19.8336 116.529 19.9227C116.627 19.9187 116.724 19.9187 116.822 19.9227C117.651 19.8977 118.462 20.1639 119.114 20.6743C119.765 21.1847 120.214 21.9068 120.382 22.7135C120.382 22.7135 123.899 38.5326 125.661 57.6661C127.423 76.8 127.787 99.2063 120.052 113.673C114.258 124.51 100.567 133.221 88.329 139.851C77.0508 145.961 67.7615 149.645 66.2321 150.245H66.2181C65.5485 150.771 64.7098 151.038 63.8574 150.996C63.0166 151.036 62.1889 150.777 61.5241 150.264C60.055 149.686 50.7191 145.975 39.3995 139.842C27.1611 133.212 13.4522 124.501 7.65815 113.664C-0.0761833 99.197 0.287093 76.7908 2.04926 57.6567C3.81134 38.5232 7.32883 22.704 7.32883 22.704C7.49406 21.9129 7.92956 21.2029 8.56161 20.6943C9.19361 20.1857 9.98327 19.9097 10.7967 19.9133C10.95 19.9193 11.1029 19.9354 11.2542 19.9612C11.3001 19.9603 11.346 19.9603 11.392 19.9612C34.6648 19.8244 55.0064 11.9117 61.4241 2.60392C61.7403 2.12736 62.1691 1.73486 62.6731 1.46051ZM114 26.8603C92.9393 26.3483 74.0794 20.5195 64.2512 10.1526C54.2904 20.5336 35.1419 26.359 13.7159 26.8693C13.0085 30.2123 10.5588 42.1285 9.06776 58.3177C7.3512 76.9569 7.7091 98.8391 13.8898 110.399C18.1302 118.331 30.9729 127.324 42.7671 133.714C53.4439 139.498 62.1201 142.971 63.8578 143.659C65.5954 142.971 74.2719 139.498 84.9487 133.714C96.743 127.324 109.585 118.331 113.826 110.399C120.007 98.8391 120.365 76.9569 118.648 58.3177C117.156 42.1205 114.706 30.1945 114 26.8603ZM49.9071 55.2012C49.3257 54.8104 48.6403 54.6011 47.9385 54.6001C47.4672 54.5992 47.0004 54.6924 46.5658 54.8742C46.1313 55.0559 45.7379 55.3225 45.4087 55.6583L27.4116 73.505C27.0834 73.8311 26.823 74.2182 26.6453 74.6443C26.4677 75.0697 26.3762 75.5269 26.3762 75.9881C26.3762 76.4492 26.4677 76.9058 26.6453 77.3318C26.823 77.7579 27.0834 78.145 27.4116 78.4705L45.4087 96.3135C45.7332 96.6529 46.1227 96.9241 46.5543 97.1107C46.9858 97.298 47.4506 97.3972 47.9213 97.4025C48.3919 97.4078 48.8589 97.3198 49.2947 97.1425C49.7305 96.9652 50.1262 96.7032 50.4585 96.3717C50.7908 96.0402 51.053 95.6459 51.2296 95.2118C51.4063 94.7778 51.4937 94.3127 51.4868 93.8449C51.48 93.3765 51.3789 92.914 51.1896 92.4859C51.0003 92.0572 50.7267 91.6701 50.3847 91.3486L34.8908 75.9881L50.3847 60.6271C50.889 60.1417 51.2362 59.5176 51.3819 58.8347C51.5275 58.1518 51.4649 57.4412 51.2022 56.7939C50.9395 56.1466 50.4885 55.592 49.9071 55.2012ZM79.8231 54.596C79.1211 54.5969 78.4356 54.8062 77.854 55.197C77.2731 55.5879 76.8219 56.1425 76.5592 56.7897C76.2965 57.4371 76.2337 58.1477 76.3793 58.8305C76.5255 59.5134 76.8722 60.1374 77.3763 60.6228L92.8705 75.9835L77.3763 91.344C77.0349 91.6662 76.761 92.0526 76.5718 92.4814C76.3826 92.9101 76.2813 93.3719 76.2747 93.8403C76.2674 94.3088 76.3548 94.7733 76.5314 95.2073C76.7081 95.6413 76.9707 96.0357 77.3029 96.3678C77.635 96.6993 78.0307 96.9613 78.4667 97.1379C78.9027 97.3153 79.3692 97.4033 79.8403 97.398C80.3107 97.3927 80.7758 97.2934 81.2072 97.1068C81.6386 96.9196 82.0283 96.6483 82.3525 96.3096L100.35 78.466C100.678 78.1404 100.938 77.7534 101.116 77.3273C101.294 76.9012 101.385 76.4447 101.385 75.9835C101.385 75.5224 101.294 75.0658 101.116 74.6397C100.938 74.2137 100.678 73.8266 100.35 73.5011L82.3525 55.6539C82.0237 55.3183 81.63 55.0518 81.1953 54.87C80.7613 54.6883 80.2941 54.5951 79.8231 54.596ZM70.6979 41.9861C71.2867 41.5203 72.0106 41.2543 72.7622 41.227C73.3226 41.2068 73.8803 41.3199 74.3878 41.5571C74.896 41.7942 75.3392 42.1485 75.682 42.5905C76.0247 43.0324 76.2563 43.5493 76.3575 44.0982C76.4587 44.6471 76.427 45.2121 76.2642 45.7463L58.2674 108.205C58.1429 108.652 57.9307 109.069 57.6433 109.433C57.3558 109.797 56.9986 110.101 56.5924 110.328C56.1862 110.554 55.7389 110.697 55.2765 110.751C54.814 110.804 54.3456 110.766 53.8981 110.638C53.4506 110.51 53.0331 110.296 52.6694 110.007C52.3058 109.718 52.0034 109.36 51.7795 108.953C51.5558 108.547 51.415 108.101 51.3655 107.641C51.3159 107.18 51.3586 106.714 51.4909 106.27L69.4878 43.8156C69.6849 43.0929 70.1084 42.4518 70.6979 41.9861Z"/>
</mask>
<path fill-rule="evenodd" clip-rule="evenodd" d="M62.6731 1.46051C63.177 1.18617 63.7409 1.03838 64.3154 1.02993L64.3104 1.00032C65.0407 0.990543 65.7561 1.2064 66.3576 1.61787C66.9591 2.02934 67.4174 2.61609 67.6682 3.29729C74.5227 12.3407 94.1673 19.8336 116.529 19.9227C116.627 19.9187 116.724 19.9187 116.822 19.9227C117.651 19.8977 118.462 20.1639 119.114 20.6743C119.765 21.1847 120.214 21.9068 120.382 22.7135C120.382 22.7135 123.899 38.5326 125.661 57.6661C127.423 76.8 127.787 99.2063 120.052 113.673C114.258 124.51 100.567 133.221 88.329 139.851C77.0508 145.961 67.7615 149.645 66.2321 150.245H66.2181C65.5485 150.771 64.7098 151.038 63.8574 150.996C63.0166 151.036 62.1889 150.777 61.5241 150.264C60.055 149.686 50.7191 145.975 39.3995 139.842C27.1611 133.212 13.4522 124.501 7.65815 113.664C-0.0761833 99.197 0.287093 76.7908 2.04926 57.6567C3.81134 38.5232 7.32883 22.704 7.32883 22.704C7.49406 21.9129 7.92956 21.2029 8.56161 20.6943C9.19361 20.1857 9.98327 19.9097 10.7967 19.9133C10.95 19.9193 11.1029 19.9354 11.2542 19.9612C11.3001 19.9603 11.346 19.9603 11.392 19.9612C34.6648 19.8244 55.0064 11.9117 61.4241 2.60392C61.7403 2.12736 62.1691 1.73486 62.6731 1.46051ZM114 26.8603C92.9393 26.3483 74.0794 20.5195 64.2512 10.1526C54.2904 20.5336 35.1419 26.359 13.7159 26.8693C13.0085 30.2123 10.5588 42.1285 9.06776 58.3177C7.3512 76.9569 7.7091 98.8391 13.8898 110.399C18.1302 118.331 30.9729 127.324 42.7671 133.714C53.4439 139.498 62.1201 142.971 63.8578 143.659C65.5954 142.971 74.2719 139.498 84.9487 133.714C96.743 127.324 109.585 118.331 113.826 110.399C120.007 98.8391 120.365 76.9569 118.648 58.3177C117.156 42.1205 114.706 30.1945 114 26.8603ZM49.9071 55.2012C49.3257 54.8104 48.6403 54.6011 47.9385 54.6001C47.4672 54.5992 47.0004 54.6924 46.5658 54.8742C46.1313 55.0559 45.7379 55.3225 45.4087 55.6583L27.4116 73.505C27.0834 73.8311 26.823 74.2182 26.6453 74.6443C26.4677 75.0697 26.3762 75.5269 26.3762 75.9881C26.3762 76.4492 26.4677 76.9058 26.6453 77.3318C26.823 77.7579 27.0834 78.145 27.4116 78.4705L45.4087 96.3135C45.7332 96.6529 46.1227 96.9241 46.5543 97.1107C46.9858 97.298 47.4506 97.3972 47.9213 97.4025C48.3919 97.4078 48.8589 97.3198 49.2947 97.1425C49.7305 96.9652 50.1262 96.7032 50.4585 96.3717C50.7908 96.0402 51.053 95.6459 51.2296 95.2118C51.4063 94.7778 51.4937 94.3127 51.4868 93.8449C51.48 93.3765 51.3789 92.914 51.1896 92.4859C51.0003 92.0572 50.7267 91.6701 50.3847 91.3486L34.8908 75.9881L50.3847 60.6271C50.889 60.1417 51.2362 59.5176 51.3819 58.8347C51.5275 58.1518 51.4649 57.4412 51.2022 56.7939C50.9395 56.1466 50.4885 55.592 49.9071 55.2012ZM79.8231 54.596C79.1211 54.5969 78.4356 54.8062 77.854 55.197C77.2731 55.5879 76.8219 56.1425 76.5592 56.7897C76.2965 57.4371 76.2337 58.1477 76.3793 58.8305C76.5255 59.5134 76.8722 60.1374 77.3763 60.6228L92.8705 75.9835L77.3763 91.344C77.0349 91.6662 76.761 92.0526 76.5718 92.4814C76.3826 92.9101 76.2813 93.3719 76.2747 93.8403C76.2674 94.3088 76.3548 94.7733 76.5314 95.2073C76.7081 95.6413 76.9707 96.0357 77.3029 96.3678C77.635 96.6993 78.0307 96.9613 78.4667 97.1379C78.9027 97.3153 79.3692 97.4033 79.8403 97.398C80.3107 97.3927 80.7758 97.2934 81.2072 97.1068C81.6386 96.9196 82.0283 96.6483 82.3525 96.3096L100.35 78.466C100.678 78.1404 100.938 77.7534 101.116 77.3273C101.294 76.9012 101.385 76.4447 101.385 75.9835C101.385 75.5224 101.294 75.0658 101.116 74.6397C100.938 74.2137 100.678 73.8266 100.35 73.5011L82.3525 55.6539C82.0237 55.3183 81.63 55.0518 81.1953 54.87C80.7613 54.6883 80.2941 54.5951 79.8231 54.596ZM70.6979 41.9861C71.2867 41.5203 72.0106 41.2543 72.7622 41.227C73.3226 41.2068 73.8803 41.3199 74.3878 41.5571C74.896 41.7942 75.3392 42.1485 75.682 42.5905C76.0247 43.0324 76.2563 43.5493 76.3575 44.0982C76.4587 44.6471 76.427 45.2121 76.2642 45.7463L58.2674 108.205C58.1429 108.652 57.9307 109.069 57.6433 109.433C57.3558 109.797 56.9986 110.101 56.5924 110.328C56.1862 110.554 55.7389 110.697 55.2765 110.751C54.814 110.804 54.3456 110.766 53.8981 110.638C53.4506 110.51 53.0331 110.296 52.6694 110.007C52.3058 109.718 52.0034 109.36 51.7795 108.953C51.5558 108.547 51.415 108.101 51.3655 107.641C51.3159 107.18 51.3586 106.714 51.4909 106.27L69.4878 43.8156C69.6849 43.0929 70.1084 42.4518 70.6979 41.9861Z" fill="#6495ED"/>
<path d="M64.3154 1.02993L64.3228 1.52988L64.906 1.52129L64.8084 0.946232L64.3154 1.02993ZM62.6731 1.46051L62.9122 1.89966L62.9122 1.89965L62.6731 1.46051ZM64.3104 1.00032L64.3037 0.500363L63.7197 0.50818L63.8174 1.08402L64.3104 1.00032ZM66.3576 1.61787L66.6399 1.20519L66.6399 1.20517L66.3576 1.61787ZM67.6682 3.29729L67.199 3.47001L67.2247 3.53994L67.2697 3.59932L67.6682 3.29729ZM116.529 19.9227L116.527 20.4226L116.538 20.4227L116.549 20.4222L116.529 19.9227ZM116.822 19.9227L116.802 20.4222L116.82 20.423L116.837 20.4224L116.822 19.9227ZM119.114 20.6743L119.422 20.2808L119.422 20.2808L119.114 20.6743ZM120.382 22.7135L119.892 22.8155L119.894 22.822L120.382 22.7135ZM125.661 57.6661L126.159 57.6203L126.159 57.6203L125.661 57.6661ZM120.052 113.673L119.611 113.437L119.611 113.437L120.052 113.673ZM88.329 139.851L88.0908 139.411L88.0908 139.411L88.329 139.851ZM66.2321 150.245V150.745H66.3268L66.4149 150.711L66.2321 150.245ZM66.2181 150.245V149.745H66.0453L65.9094 149.852L66.2181 150.245ZM63.8574 150.996L63.8822 150.496L63.8578 150.495L63.8334 150.496L63.8574 150.996ZM61.5241 150.264L61.8295 149.868L61.7733 149.825L61.7073 149.799L61.5241 150.264ZM39.3995 139.842L39.6377 139.402L39.6377 139.402L39.3995 139.842ZM7.65815 113.664L8.09909 113.428L8.09909 113.428L7.65815 113.664ZM2.04926 57.6567L2.54715 57.7025L2.54715 57.7025L2.04926 57.6567ZM7.32883 22.704L7.81695 22.8126L7.81827 22.8062L7.32883 22.704ZM8.56161 20.6943L8.87507 21.0839L8.87511 21.0838L8.56161 20.6943ZM10.7967 19.9133L10.8163 19.4136L10.8076 19.4133L10.7989 19.4133L10.7967 19.9133ZM11.2542 19.9612L11.1702 20.454L11.2165 20.462L11.2636 20.4611L11.2542 19.9612ZM11.392 19.9612L11.3827 20.4612L11.395 20.4612L11.392 19.9612ZM61.4241 2.60392L61.8358 2.88779L61.8407 2.8804L61.4241 2.60392ZM64.2512 10.1526L64.6141 9.80858L64.2534 9.42813L63.8905 9.8064L64.2512 10.1526ZM114 26.8603L114.489 26.7568L114.407 26.3701L114.012 26.3605L114 26.8603ZM13.7159 26.8693L13.704 26.3694L13.3087 26.3788L13.2268 26.7658L13.7159 26.8693ZM9.06776 58.3177L8.56987 58.2719L8.56987 58.2719L9.06776 58.3177ZM13.8898 110.399L14.3308 110.163L14.3307 110.163L13.8898 110.399ZM42.7671 133.714L42.5289 134.153L42.5289 134.153L42.7671 133.714ZM63.8578 143.659L63.6738 144.124L63.8578 144.197L64.0419 144.124L63.8578 143.659ZM84.9487 133.714L85.1869 134.153L85.1869 134.153L84.9487 133.714ZM113.826 110.399L113.385 110.163L113.385 110.163L113.826 110.399ZM118.648 58.3177L118.15 58.3636L118.15 58.3636L118.648 58.3177ZM47.9385 54.6001L47.9376 55.1001L47.9378 55.1001L47.9385 54.6001ZM49.9071 55.2012L49.6281 55.6162L49.6282 55.6162L49.9071 55.2012ZM46.5658 54.8742L46.3729 54.4129L46.3729 54.4129L46.5658 54.8742ZM45.4087 55.6583L45.7608 56.0133L45.7657 56.0083L45.4087 55.6583ZM27.4116 73.505L27.0595 73.1499L27.0592 73.1503L27.4116 73.505ZM26.6453 74.6443L27.1067 74.837L27.1068 74.8368L26.6453 74.6443ZM26.6453 77.3318L26.1838 77.5243L26.1838 77.5243L26.6453 77.3318ZM27.4116 78.4705L27.0595 78.8255L27.0596 78.8256L27.4116 78.4705ZM45.4087 96.3135L45.7702 95.9678L45.7607 95.9584L45.4087 96.3135ZM46.5543 97.1107L46.7534 96.652L46.7527 96.6518L46.5543 97.1107ZM47.9213 97.4025L47.9157 97.9025L47.9157 97.9025L47.9213 97.4025ZM49.2947 97.1425L49.1063 96.6794L49.1062 96.6794L49.2947 97.1425ZM50.4585 96.3717L50.1054 96.0177L50.1054 96.0177L50.4585 96.3717ZM51.2296 95.2118L50.7665 95.0233L50.7665 95.0234L51.2296 95.2118ZM51.4868 93.8449L50.9869 93.8522L50.9869 93.8523L51.4868 93.8449ZM51.1896 92.4859L50.7322 92.6879L50.7323 92.6881L51.1896 92.4859ZM50.3847 91.3486L50.0326 91.7038L50.0422 91.7128L50.3847 91.3486ZM34.8908 75.9881L34.5388 75.633L34.1806 75.9881L34.5388 76.3432L34.8908 75.9881ZM50.3847 60.6271L50.0379 60.2669L50.0327 60.272L50.3847 60.6271ZM51.2022 56.7939L51.6655 56.6059L51.6655 56.6059L51.2022 56.7939ZM77.854 55.197L77.5751 54.7821L77.5749 54.7822L77.854 55.197ZM79.8231 54.596L79.8238 55.096L79.824 55.096L79.8231 54.596ZM76.5592 56.7897L76.0959 56.6017L76.0959 56.6017L76.5592 56.7897ZM76.3793 58.8305L75.8902 58.9348L75.8903 58.9352L76.3793 58.8305ZM77.3763 60.6228L77.7284 60.2677L77.7231 60.2627L77.3763 60.6228ZM92.8705 75.9835L93.2225 76.3386L93.5807 75.9835L93.2225 75.6284L92.8705 75.9835ZM77.3763 91.344L77.7196 91.7077L77.7284 91.6991L77.3763 91.344ZM76.5718 92.4814L76.1144 92.2795L76.1144 92.2795L76.5718 92.4814ZM76.2747 93.8403L76.7747 93.8481L76.7747 93.8474L76.2747 93.8403ZM76.5314 95.2073L76.0683 95.3958L76.0683 95.3958L76.5314 95.2073ZM77.3029 96.3678L76.9493 96.7213L76.9497 96.7217L77.3029 96.3678ZM78.4667 97.1379L78.6551 96.6748L78.6545 96.6745L78.4667 97.1379ZM79.8403 97.398L79.8459 97.8979L79.8459 97.8979L79.8403 97.398ZM81.2072 97.1068L81.4057 97.5658L81.4063 97.5655L81.2072 97.1068ZM82.3525 96.3096L82.0003 95.9544L81.9912 95.9639L82.3525 96.3096ZM100.35 78.466L100.702 78.821L100.702 78.821L100.35 78.466ZM101.116 77.3273L100.654 77.1346L100.654 77.1352L101.116 77.3273ZM101.116 74.6397L100.654 74.8319L100.654 74.8325L101.116 74.6397ZM100.35 73.5011L100.702 73.1461L100.702 73.146L100.35 73.5011ZM82.3525 55.6539L81.9953 56.0038L82.0004 56.0089L82.3525 55.6539ZM81.1953 54.87L81.0022 55.3312L81.0024 55.3313L81.1953 54.87ZM72.7622 41.227L72.7441 40.7274L72.7441 40.7274L72.7622 41.227ZM70.6979 41.9861L71.0078 42.3784L71.0081 42.3782L70.6979 41.9861ZM74.3878 41.5571L74.1761 42.0101L74.1764 42.0102L74.3878 41.5571ZM76.3575 44.0982L75.8658 44.1889L75.8658 44.1889L76.3575 44.0982ZM76.2642 45.7463L75.7859 45.6006L75.7838 45.6079L76.2642 45.7463ZM58.2674 108.205L57.7869 108.067L57.7857 108.071L58.2674 108.205ZM57.6433 109.433L58.0356 109.743L58.0359 109.743L57.6433 109.433ZM56.5924 110.328L56.3491 109.891L56.349 109.891L56.5924 110.328ZM55.2765 110.751L55.3334 111.248L55.3341 111.248L55.2765 110.751ZM53.8981 110.638L53.7609 111.119L53.7609 111.119L53.8981 110.638ZM52.6694 110.007L52.3582 110.398L52.3582 110.398L52.6694 110.007ZM51.7795 108.953L51.3416 109.195L51.3416 109.195L51.7795 108.953ZM51.3655 107.641L51.8626 107.587L51.8626 107.587L51.3655 107.641ZM51.4909 106.27L51.9701 106.413L51.9714 106.409L51.4909 106.27ZM69.4878 43.8156L69.9683 43.954L69.9701 43.9472L69.4878 43.8156ZM64.3081 0.529984C63.6526 0.539628 63.0093 0.708206 62.434 1.02138L62.9122 1.89965C63.3448 1.66414 63.8291 1.53714 64.3228 1.52988L64.3081 0.529984ZM63.8174 1.08402L63.8225 1.11363L64.8084 0.946232L64.8033 0.916621L63.8174 1.08402ZM66.6399 1.20517C65.9532 0.735443 65.1368 0.489211 64.3037 0.500363L64.3171 1.50027C64.9446 1.49187 65.559 1.67737 66.0753 2.03056L66.6399 1.20517ZM68.1374 3.12457C67.8505 2.34526 67.3265 1.6749 66.6399 1.20519L66.0753 2.03055C66.5917 2.38378 66.9843 2.88693 67.199 3.47001L68.1374 3.12457ZM116.531 19.4227C105.403 19.3783 94.957 17.4914 86.4495 14.4962C77.9267 11.4957 71.4085 7.40423 68.0667 2.99527L67.2697 3.59932C70.7824 8.23379 77.5138 12.4105 86.1174 15.4395C94.7362 18.4739 105.294 20.3779 116.527 20.4226L116.531 19.4227ZM116.843 19.4231C116.731 19.4185 116.62 19.4185 116.509 19.4231L116.549 20.4222C116.634 20.4188 116.718 20.4188 116.802 20.4222L116.843 19.4231ZM119.422 20.2808C118.679 19.698 117.753 19.3944 116.807 19.4229L116.837 20.4224C117.55 20.401 118.246 20.6297 118.805 21.0678L119.422 20.2808ZM120.871 22.6115C120.679 21.6887 120.165 20.8637 119.422 20.2808L118.805 21.0677C119.364 21.5058 119.748 22.1248 119.892 22.8155L120.871 22.6115ZM126.159 57.6203C125.276 48.0367 123.954 39.2848 122.853 32.9294C122.303 29.7513 121.807 27.1717 121.449 25.3859C121.27 24.493 121.126 23.7985 121.026 23.3269C120.976 23.0911 120.937 22.911 120.91 22.7896C120.897 22.729 120.887 22.683 120.88 22.6521C120.877 22.6366 120.874 22.625 120.873 22.6171C120.872 22.6132 120.871 22.6102 120.871 22.6081C120.87 22.6071 120.87 22.6064 120.87 22.6058C120.87 22.6056 120.87 22.6054 120.87 22.6052C120.87 22.6051 120.87 22.605 120.382 22.7135C119.894 22.822 119.894 22.822 119.894 22.8221C119.894 22.8222 119.894 22.8224 119.894 22.8226C119.894 22.823 119.894 22.8237 119.894 22.8246C119.895 22.8264 119.895 22.8292 119.896 22.833C119.898 22.8405 119.9 22.8518 119.904 22.8668C119.91 22.8969 119.92 22.9421 119.933 23.002C119.959 23.1217 119.998 23.3002 120.047 23.5343C120.147 24.0025 120.29 24.6934 120.469 25.5825C120.825 27.3607 121.319 29.9317 121.868 33.1001C122.966 39.4375 124.284 48.162 125.163 57.712L126.159 57.6203ZM120.493 113.909C124.409 106.585 126.259 97.2863 126.917 87.4531C127.575 77.6137 127.041 67.199 126.159 57.6203L125.163 57.712C126.043 67.2672 126.572 77.6226 125.919 87.3864C125.265 97.1564 123.431 106.294 119.611 113.437L120.493 113.909ZM88.5672 140.291C94.6956 136.971 101.204 133.121 106.912 128.736C112.615 124.355 117.549 119.416 120.493 113.909L119.611 113.437C116.762 118.767 111.953 123.603 106.303 127.943C100.656 132.281 94.2006 136.101 88.0908 139.411L88.5672 140.291ZM66.4149 150.711C67.9537 150.106 77.2639 146.414 88.5672 140.291L88.0908 139.411C76.8377 145.508 67.5692 149.183 66.0493 149.78L66.4149 150.711ZM66.2181 150.745H66.2321V149.745H66.2181V150.745ZM63.8326 151.495C64.8053 151.543 65.7625 151.238 66.5267 150.639L65.9094 149.852C65.3346 150.303 64.6142 150.533 63.8822 150.496L63.8326 151.495ZM61.2188 150.66C61.9779 151.245 62.9224 151.541 63.8813 151.495L63.8334 150.496C63.1107 150.531 62.3999 150.308 61.8295 149.868L61.2188 150.66ZM39.1613 140.281C50.5058 146.428 59.8624 150.147 61.341 150.729L61.7073 149.799C60.2477 149.224 50.9324 145.521 39.6377 139.402L39.1613 140.281ZM7.21722 113.899C10.1619 119.407 15.0999 124.346 20.8078 128.727C26.5196 133.112 33.0329 136.961 39.1613 140.281L39.6377 139.402C33.5277 136.092 27.0674 132.271 21.4167 127.934C15.7619 123.593 10.9485 118.758 8.09909 113.428L7.21722 113.899ZM1.55137 57.6108C0.669205 67.1896 0.135399 77.6044 0.793633 87.4438C1.45145 97.2771 3.30202 106.576 7.21722 113.899L8.09909 113.428C4.27995 106.284 2.44499 97.1471 1.7914 87.3771C1.13823 77.6133 1.66715 67.2579 2.54715 57.7025L1.55137 57.6108ZM7.32883 22.704C6.84075 22.5955 6.84073 22.5956 6.8407 22.5958C6.84067 22.5959 6.84062 22.5961 6.84056 22.5964C6.84044 22.5969 6.84027 22.5977 6.84005 22.5987C6.8396 22.6007 6.83894 22.6037 6.83807 22.6076C6.83633 22.6155 6.83375 22.6272 6.83035 22.6426C6.82356 22.6735 6.81349 22.7195 6.8003 22.7802C6.77393 22.9015 6.73511 23.0816 6.68512 23.3174C6.58514 23.7891 6.44048 24.4835 6.26145 25.3764C5.9034 27.1622 5.40782 29.7419 4.85717 32.9199C3.75597 39.2754 2.43395 48.0273 1.55137 57.6108L2.54715 57.7025C3.42664 48.1526 4.74441 39.4281 5.84248 33.0906C6.39146 29.9222 6.88539 27.3513 7.24193 25.573C7.4202 24.6839 7.56411 23.9931 7.66338 23.5248C7.71301 23.2907 7.75148 23.1123 7.7775 22.9925C7.7905 22.9327 7.8004 22.8875 7.80702 22.8574C7.81034 22.8423 7.81283 22.831 7.81448 22.8235C7.81531 22.8198 7.81593 22.817 7.81633 22.8152C7.81654 22.8142 7.81669 22.8136 7.81678 22.8131C7.81683 22.8129 7.81686 22.8128 7.81689 22.8127C7.81691 22.8126 7.81691 22.8126 7.32883 22.704ZM8.24816 20.3048C7.52633 20.8856 7.02836 21.697 6.83939 22.6018L7.81827 22.8062C7.95975 22.1288 8.33278 21.5202 8.87507 21.0839L8.24816 20.3048ZM10.7989 19.4133C9.87099 19.4092 8.96979 19.724 8.24811 20.3048L8.87511 21.0838C9.41743 20.6473 10.0955 20.4102 10.7945 20.4133L10.7989 19.4133ZM11.3382 19.4683C11.1659 19.4389 10.9915 19.4205 10.8163 19.4136L10.7771 20.4129C10.9086 20.418 11.0399 20.4318 11.1702 20.454L11.3382 19.4683ZM11.4014 19.4612C11.3492 19.4603 11.297 19.4603 11.2448 19.4612L11.2636 20.4611C11.3032 20.4603 11.3429 20.4603 11.3827 20.4611L11.4014 19.4612ZM61.0124 2.3201C57.8913 6.84679 51.3187 11.1059 42.5598 14.2511C33.8197 17.3895 22.9725 19.3931 11.3891 19.4612L11.395 20.4612C23.0844 20.3925 34.0444 18.3713 42.8977 15.1922C51.7322 12.0199 58.5392 7.66879 61.8357 2.88774L61.0124 2.3201ZM62.4341 1.02137C61.8588 1.33452 61.369 1.78276 61.0075 2.32744L61.8407 2.8804C62.1117 2.47197 62.4795 2.1352 62.9122 1.89966L62.4341 1.02137ZM63.8884 10.4966C73.852 21.0064 92.8756 26.8469 113.988 27.3602L114.012 26.3605C93.003 25.8497 74.3068 20.0327 64.6141 9.80858L63.8884 10.4966ZM13.7278 27.3691C35.2033 26.8576 54.5151 21.0215 64.612 10.4988L63.8905 9.8064C54.0656 20.0457 35.0805 25.8603 13.704 26.3694L13.7278 27.3691ZM9.56566 58.3636C11.0542 42.2009 13.4998 30.3055 14.2051 26.9728L13.2268 26.7658C12.5171 30.1191 10.0633 42.0561 8.56987 58.2719L9.56566 58.3636ZM14.3307 110.163C11.2909 104.478 9.66211 96.2027 9.01609 86.9781C8.37099 77.767 8.70906 67.6648 9.56566 58.3636L8.56987 58.2719C7.7099 67.6097 7.36863 77.7683 8.01853 87.048C8.66749 96.3144 10.308 104.76 13.4489 110.635L14.3307 110.163ZM43.0053 133.274C37.1254 130.088 30.9902 126.257 25.8019 122.239C20.6017 118.212 16.3999 114.034 14.3308 110.163L13.4489 110.635C15.6201 114.696 19.9598 118.98 25.1896 123.03C30.4312 127.089 36.6146 130.949 42.5289 134.153L43.0053 133.274ZM64.0419 143.195C62.3136 142.51 53.6577 139.045 43.0052 133.274L42.5289 134.153C53.2302 139.951 61.9266 143.433 63.6738 144.124L64.0419 143.195ZM84.7106 133.274C74.0582 139.045 65.4019 142.51 63.6737 143.195L64.0419 144.124C65.7889 143.433 74.4857 139.951 85.1869 134.153L84.7106 133.274ZM113.385 110.163C111.316 114.034 107.114 118.212 101.914 122.239C96.7255 126.257 90.5905 130.088 84.7105 133.274L85.1869 134.153C91.1013 130.949 97.2845 127.089 102.526 123.03C107.756 118.98 112.095 114.696 114.267 110.635L113.385 110.163ZM118.15 58.3636C119.007 67.6648 119.345 77.767 118.7 86.9781C118.054 96.2026 116.425 104.478 113.385 110.163L114.267 110.635C117.408 104.76 119.048 96.3144 119.697 87.048C120.347 77.7683 120.006 67.6097 119.146 58.2719L118.15 58.3636ZM113.511 26.9639C114.214 30.2876 116.661 42.1929 118.15 58.3636L119.146 58.2719C117.652 42.0482 115.197 30.1014 114.489 26.7568L113.511 26.9639ZM47.9378 55.1001C48.5406 55.101 49.1292 55.2807 49.6281 55.6162L50.186 54.7862C49.5222 54.34 48.7399 54.1012 47.9392 54.1001L47.9378 55.1001ZM46.7588 55.3354C47.1319 55.1794 47.5327 55.0994 47.9376 55.1001L47.9394 54.1001C47.4016 54.0991 46.8689 54.2054 46.3729 54.4129L46.7588 55.3354ZM45.7657 56.0083C46.0481 55.7203 46.3858 55.4915 46.7588 55.3354L46.3729 54.4129C45.8769 54.6203 45.4276 54.9248 45.0517 55.3082L45.7657 56.0083ZM27.7637 73.86L45.7608 56.0133L45.0566 55.3032L27.0595 73.1499L27.7637 73.86ZM27.1068 74.8368C27.2591 74.4715 27.4823 74.1396 27.7641 73.8596L27.0592 73.1503C26.6844 73.5227 26.3869 73.9649 26.1838 74.4518L27.1068 74.8368ZM26.8762 75.9881C26.8762 75.5929 26.9546 75.2012 27.1067 74.837L26.1839 74.4516C25.9807 74.9382 25.8762 75.4609 25.8762 75.9881H26.8762ZM27.1068 77.1394C26.9545 76.7742 26.8762 76.3831 26.8762 75.9881H25.8762C25.8762 76.5154 25.9808 77.0373 26.1838 77.5243L27.1068 77.1394ZM27.7637 78.1155C27.4823 77.8364 27.2591 77.5046 27.1068 77.1394L26.1838 77.5243C26.3869 78.0113 26.6844 78.4536 27.0595 78.8255L27.7637 78.1155ZM45.7607 95.9584L27.7636 78.1154L27.0596 78.8256L45.0567 96.6685L45.7607 95.9584ZM46.7527 96.6518C46.3826 96.4918 46.0485 96.2591 45.7701 95.9679L45.0473 96.659C45.418 97.0467 45.8629 97.3565 46.3559 97.5697L46.7527 96.6518ZM47.927 96.9025C47.5228 96.898 47.1238 96.8128 46.7534 96.652L46.3553 97.5694C46.8479 97.7832 47.3785 97.8964 47.9157 97.9025L47.927 96.9025ZM49.1062 96.6794C48.7325 96.8314 48.3316 96.9071 47.9269 96.9025L47.9157 97.9025C48.4523 97.9085 48.9853 97.8082 49.4831 97.6056L49.1062 96.6794ZM50.1054 96.0177C49.8203 96.302 49.4807 96.527 49.1063 96.6794L49.4831 97.6056C49.9803 97.4033 50.432 97.1043 50.8116 96.7257L50.1054 96.0177ZM50.7665 95.0234C50.6152 95.3953 50.3904 95.7334 50.1054 96.0177L50.8116 96.7257C51.1912 96.347 51.4909 95.8964 51.6928 95.4003L50.7665 95.0234ZM50.9869 93.8523C50.9928 94.2529 50.9179 94.6515 50.7665 95.0233L51.6927 95.4003C51.8947 94.9041 51.9946 94.3724 51.9868 93.8375L50.9869 93.8523ZM50.7323 92.6881C50.8944 93.0546 50.981 93.4508 50.9869 93.8522L51.9868 93.8376C51.979 93.3021 51.8634 92.7733 51.6469 92.2837L50.7323 92.6881ZM50.0422 91.7128C50.3353 91.9884 50.5699 92.3202 50.7322 92.6879L51.647 92.284C51.4307 91.7941 51.118 91.3518 50.7272 90.9843L50.0422 91.7128ZM34.5388 76.3432L50.0327 91.7036L50.7367 90.9935L35.2428 75.633L34.5388 76.3432ZM50.0327 60.272L34.5388 75.633L35.2428 76.3431L50.7367 60.9822L50.0327 60.272ZM50.8929 58.7304C50.7681 59.3154 50.4706 59.8505 50.038 60.2669L50.7315 60.9873C51.3075 60.4329 51.7044 59.7197 51.8709 58.939L50.8929 58.7304ZM50.7389 56.982C50.964 57.5366 51.0176 58.1454 50.8929 58.7304L51.8709 58.939C52.0374 58.1582 51.9658 57.3458 51.6655 56.6059L50.7389 56.982ZM49.6282 55.6162C50.1272 55.9516 50.5138 56.4272 50.7389 56.982L51.6655 56.6059C51.3652 55.866 50.8499 55.2325 50.186 54.7862L49.6282 55.6162ZM78.1329 55.612C78.6321 55.2766 79.2207 55.0968 79.8238 55.096L79.8223 54.096C79.0214 54.0971 78.2391 54.3358 77.5751 54.7821L78.1329 55.612ZM77.0225 56.9777C77.2476 56.4232 77.6345 55.9474 78.1331 55.6119L77.5749 54.7822C76.9118 55.2283 76.3962 55.8617 76.0959 56.6017L77.0225 56.9777ZM76.8683 58.7263C76.7436 58.1414 76.7974 57.5326 77.0225 56.9777L76.0959 56.6017C75.7957 57.3415 75.7238 58.1539 75.8902 58.9348L76.8683 58.7263ZM77.7231 60.2627C77.2908 59.8464 76.9935 59.3114 76.8682 58.7258L75.8903 58.9352C76.0574 59.7155 76.4536 60.4284 77.0295 60.983L77.7231 60.2627ZM93.2225 75.6284L77.7284 60.2678L77.0243 60.9779L92.5184 76.3386L93.2225 75.6284ZM77.7284 91.6991L93.2225 76.3386L92.5184 75.6284L77.0243 90.9889L77.7284 91.6991ZM77.0292 92.6832C77.1913 92.3161 77.4261 91.9845 77.7195 91.7076L77.0331 90.9804C76.6437 91.3479 76.3308 91.7891 76.1144 92.2795L77.0292 92.6832ZM76.7747 93.8474C76.7803 93.4464 76.867 93.0509 77.0292 92.6832L76.1144 92.2795C75.8982 92.7693 75.7823 93.2974 75.7748 93.8333L76.7747 93.8474ZM76.9945 95.0188C76.8432 94.6469 76.7684 94.2492 76.7747 93.8481L75.7748 93.8326C75.7664 94.3684 75.8664 94.8996 76.0683 95.3958L76.9945 95.0188ZM77.6564 96.0142C77.371 95.7288 77.1458 95.3905 76.9945 95.0188L76.0683 95.3958C76.2704 95.8922 76.5705 96.3425 76.9493 96.7213L77.6564 96.0142ZM78.6545 96.6745C78.2803 96.523 77.941 96.2982 77.6561 96.0139L76.9497 96.7217C77.3291 97.1004 77.781 97.3996 78.279 97.6013L78.6545 96.6745ZM79.8346 96.898C79.4296 96.9025 79.0291 96.8269 78.6551 96.6748L78.2783 97.6011C78.7763 97.8036 79.3087 97.904 79.8459 97.8979L79.8346 96.898ZM81.0087 96.6479C80.6381 96.8082 80.2385 96.8934 79.8346 96.898L79.8459 97.8979C80.3828 97.8919 80.9135 97.7786 81.4057 97.5658L81.0087 96.6479ZM81.9912 95.9639C81.7132 96.2544 81.3787 96.4873 81.0081 96.6482L81.4063 97.5655C81.8985 97.3518 82.3434 97.0422 82.7137 96.6553L81.9912 95.9639ZM99.9975 78.1109L82.0004 95.9545L82.7045 96.6646L100.702 78.821L99.9975 78.1109ZM100.654 77.1352C100.502 77.5 100.279 77.8318 99.9975 78.111L100.702 78.821C101.077 78.4491 101.375 78.0068 101.577 77.5194L100.654 77.1352ZM100.885 75.9835C100.885 76.3786 100.807 76.7696 100.654 77.1346L101.577 77.52C101.781 77.0328 101.885 76.5107 101.885 75.9835H100.885ZM100.654 74.8325C100.807 75.1974 100.885 75.5884 100.885 75.9835H101.885C101.885 75.4563 101.781 74.9343 101.577 74.447L100.654 74.8325ZM99.9975 73.8561C100.279 74.1353 100.502 74.4671 100.654 74.8319L101.577 74.4476C101.375 73.9602 101.077 73.5179 100.702 73.1461L99.9975 73.8561ZM82.0004 56.0089L99.9975 73.8561L100.702 73.146L82.7045 55.2989L82.0004 56.0089ZM81.0024 55.3313C81.3758 55.4874 81.7135 55.7162 81.9953 56.0038L82.7096 55.304C82.3338 54.9204 81.8842 54.6161 81.3882 54.4087L81.0024 55.3313ZM79.824 55.096C80.2286 55.0952 80.6298 55.1753 81.0022 55.3312L81.3884 54.4088C80.8927 54.2012 80.3596 54.095 79.8221 54.096L79.824 55.096ZM72.7441 40.7274C71.8864 40.7585 71.0602 41.062 70.3877 41.5939L71.0081 42.3782C71.5133 41.9787 72.1347 41.7501 72.7803 41.7267L72.7441 40.7274ZM74.5995 41.1041C74.0201 40.8333 73.3836 40.7043 72.7441 40.7274L72.7802 41.7267C73.2616 41.7093 73.7406 41.8065 74.1761 42.0101L74.5995 41.1041ZM76.0771 42.2841C75.6857 41.7793 75.1794 41.3747 74.5993 41.104L74.1764 42.0102C74.6125 42.2137 74.9928 42.5177 75.2869 42.8969L76.0771 42.2841ZM76.8492 44.0075C76.7335 43.3799 76.4687 42.7891 76.0771 42.2841L75.2869 42.8969C75.5807 43.2758 75.7791 43.7187 75.8658 44.1889L76.8492 44.0075ZM76.7425 45.8921C76.9286 45.2811 76.9649 44.635 76.8492 44.0075L75.8658 44.1889C75.9525 44.6592 75.9253 45.1431 75.7859 45.6006L76.7425 45.8921ZM58.7478 108.344L76.7447 45.8848L75.7838 45.6079L57.7869 108.067L58.7478 108.344ZM58.0359 109.743C58.3641 109.326 58.6066 108.85 58.749 108.339L57.7857 108.071C57.6791 108.453 57.4974 108.811 57.2506 109.123L58.0359 109.743ZM56.8357 110.764C57.2996 110.506 57.7073 110.159 58.0356 109.743L57.2509 109.123C57.0042 109.435 56.6977 109.697 56.3491 109.891L56.8357 110.764ZM55.3341 111.248C55.8613 111.187 56.3718 111.023 56.8357 110.764L56.349 109.891C56.0007 110.085 55.6166 110.208 55.219 110.254L55.3341 111.248ZM53.7609 111.119C54.2715 111.264 54.8059 111.308 55.3334 111.248L55.2197 110.254C54.8222 110.3 54.4197 110.267 54.0353 110.157L53.7609 111.119ZM52.3582 110.398C52.7736 110.728 53.2503 110.973 53.7609 111.119L54.0353 110.157C53.6509 110.047 53.2925 109.863 52.9806 109.615L52.3582 110.398ZM51.3416 109.195C51.5974 109.659 51.943 110.068 52.3582 110.398L52.9806 109.615C52.6686 109.367 52.4093 109.06 52.2175 108.712L51.3416 109.195ZM50.8683 107.694C50.9249 108.221 51.0859 108.731 51.3416 109.195L52.2175 108.712C52.0256 108.364 51.905 107.982 51.8626 107.587L50.8683 107.694ZM51.0118 106.128C50.8605 106.635 50.8117 107.168 50.8683 107.694L51.8626 107.587C51.8202 107.193 51.8567 106.794 51.9701 106.413L51.0118 106.128ZM69.0073 43.6771L51.0105 106.132L51.9714 106.409L69.9682 43.954L69.0073 43.6771ZM70.3879 41.5937C69.7145 42.1257 69.2307 42.8582 69.0054 43.6839L69.9701 43.9472C70.1392 43.3276 70.5022 42.7779 71.0078 42.3784L70.3879 41.5937Z" fill="#6495ED" mask="url(#path-5-outside-1_162_90)"/>
</svg>
