<svg width="35" height="35" fill="none" xmlns="http://www.w3.org/2000/svg"><path d="M10.486 27.917c5.791 0 10.486-4.695 10.486-10.487 0-5.79-4.695-10.486-10.486-10.486S0 11.64 0 17.43c0 5.792 4.695 10.487 10.486 10.487z" fill="#E41E1E"/><path d="M35 17.5C35 23.278 30.333 28 24.5 28 18.722 28 14 23.278 14 17.5S18.667 7 24.444 7C30.334 7 35 11.722 35 17.5z" fill="#FFB600"/><path fill-rule="evenodd" clip-rule="evenodd" d="M17.452 25.268a10.46 10.46 0 003.52-7.838 10.46 10.46 0 00-3.458-7.782A10.507 10.507 0 0014 17.5c0 3.071 1.334 5.844 3.452 7.768z" fill="#FF5F00"/><path d="M14.223 20.167l.166-.945c-.055 0-.166.056-.278.056-.389 0-.444-.222-.389-.333L14.056 17h.61l.168-1.056h-.556l.111-.666h-1.111s-.667 3.667-.667 4.11c0 .668.39.945.89.945.333 0 .61-.11.722-.166zm.388-1.778c0 1.555 1.056 1.944 1.945 1.944.833 0 1.166-.166 1.166-.166l.223-1.056s-.611.278-1.167.278c-1.222 0-1-.889-1-.889h2.278s.166-.722.166-1c0-.722-.388-1.611-1.61-1.611-1.167-.111-2 1.111-2 2.5zm1.945-1.611c.61 0 .5.722.5.777h-1.222c0-.055.11-.777.722-.777zm7.054 3.389l.223-1.223s-.556.278-.945.278c-.778 0-1.111-.61-1.111-1.277 0-1.334.667-2.056 1.444-2.056.556 0 1 .333 1 .333l.167-1.166s-.667-.278-1.278-.278c-1.277 0-2.555 1.11-2.555 3.222 0 1.389.666 2.333 2 2.333.444 0 1.055-.166 1.055-.166zm-15.499-4.39c-.778 0-1.333.223-1.333.223l-.167.944s.5-.222 1.222-.222c.39 0 .723.055.723.389 0 .222-.056.277-.056.277H8c-.944 0-2 .39-2 1.667 0 1 .667 1.222 1.056 1.222.777 0 1.11-.5 1.166-.5l-.055.445h1l.444-3.056c0-1.333-1.111-1.389-1.5-1.389zm.222 2.5c0 .167-.11 1.056-.777 1.056-.334 0-.445-.278-.445-.444 0-.278.167-.667 1-.667.167.055.222.055.222.055zm2.333 2.001c.278 0 1.667.055 1.667-1.445 0-1.389-1.333-1.11-1.333-1.666 0-.278.222-.39.61-.39.168 0 .779.056.779.056l.166-1s-.389-.11-1.055-.11c-.834 0-1.667.332-1.667 1.444 0 1.277 1.389 1.166 1.389 1.666 0 .334-.389.39-.667.39-.5 0-1-.168-1-.168l-.166 1c.055.112.333.223 1.277.223zm22.167-5.389l-.222 1.5s-.445-.556-1.056-.556c-1 0-1.889 1.222-1.889 2.667 0 .889.444 1.833 1.389 1.833.667 0 1.056-.444 1.056-.444l-.056.389h1.111l.833-5.334-1.166-.055zm-.5 2.944c0 .611-.278 1.389-.89 1.389-.388 0-.61-.333-.61-.889 0-.889.389-1.444.889-1.444.389 0 .61.277.61.944zM2.056 20.222l.666-4 .111 4h.778l1.445-4-.612 4h1.167l.889-5.333H4.667l-1.111 3.277L3.5 14.89H1.889L1 20.222h1.056zm17.221 0c.333-1.833.389-3.333 1.167-3.056.11-.722.277-1 .389-1.277h-.223c-.5 0-.889.666-.889.666l.111-.61h-1.055l-.722 4.333h1.222v-.056zm6.889-4.445c-.778 0-1.334.223-1.334.223l-.166.944s.5-.222 1.222-.222c.389 0 .722.055.722.389 0 .222-.055.277-.055.277h-.5c-.945 0-2 .39-2 1.667 0 1 .666 1.222 1.055 1.222.778 0 1.111-.5 1.167-.5l-.056.445h1l.445-3.056c.055-1.333-1.111-1.389-1.5-1.389zm.278 2.5c0 .167-.111 1.056-.778 1.056-.334 0-.445-.278-.445-.444 0-.278.167-.667 1-.667.167.055.167.055.223.055zm2.166 1.945c.334-1.833.39-3.333 1.168-3.056.11-.722.277-1 .388-1.277h-.222c-.5 0-.889.666-.889.666l.111-.61h-1.055l-.722 4.333h1.222v-.056z" fill="#fff"/></svg>