<svg width="40" height="40" fill="none" xmlns="http://www.w3.org/2000/svg"><path d="M14.666 25.746l2.032-11.429h3.174l-1.968 11.429h-3.238z" fill="#fff"/><path d="M14.666 25.746l2.603-11.429h2.603l-1.968 11.429h-3.238z" fill="#fff"/><path d="M29.396 14.444c-.635-.254-1.65-.508-2.92-.508-3.175 0-5.461 1.588-5.461 3.873 0 1.715 1.587 2.604 2.857 3.175 1.27.572 1.65.952 1.65 1.46 0 .762-1.015 1.143-1.904 1.143-1.27 0-1.968-.19-3.047-.635l-.445-.19-.444 2.603c.762.318 2.158.635 3.619.635 3.365 0 5.587-1.587 5.587-4 0-1.333-.825-2.35-2.73-3.175-1.143-.571-1.841-.889-1.841-1.46 0-.508.571-1.016 1.84-1.016 1.08 0 1.842.19 2.413.445l.318.127.508-2.476z" fill="#979797"/><path d="M29.396 14.444c-.635-.254-1.65-.508-2.92-.508-3.175 0-4.89 1.588-4.89 3.873 0 1.715 1.016 2.604 2.286 3.175 1.27.572 1.65.952 1.65 1.46 0 .762-1.015 1.143-1.904 1.143-1.27 0-1.968-.19-3.047-.635l-.445-.19-.444 2.603c.762.318 2.158.635 3.619.635 3.365 0 5.587-1.587 5.587-4 0-1.333-.825-2.35-2.73-3.175-1.143-.571-1.841-.889-1.841-1.46 0-.508.571-1.016 1.84-1.016 1.08 0 1.842.19 2.413.445l.318.127.508-2.476z" fill="#fff"/><path d="M34.858 14.317c-.762 0-1.333.064-1.65.826l-4.763 10.603h3.429l.635-1.905h4.063l.381 1.905h3.048l-2.667-11.429h-2.476zm-1.46 7.62c.19-.572 1.27-3.366 1.27-3.366s.254-.698.444-1.143l.19 1.08s.635 2.857.762 3.492h-2.666v-.064z" fill="#979797"/><path d="M35.62 14.317c-.762 0-1.333.064-1.65.826l-5.525 10.603h3.429l.635-1.905h4.063l.381 1.905h3.048l-2.667-11.429H35.62zm-2.222 7.62a313.03 313.03 0 001.27-3.366s.254-.698.444-1.143l.19 1.08s.635 2.857.762 3.492h-2.666v-.064z" fill="#fff"/><path d="M8.824 22.317l-.317-1.65c-.571-1.905-2.413-4-4.444-5.016L6.92 25.809h3.428l5.143-11.428h-3.428l-3.239 7.936z" fill="#979797"/><path d="M8.824 22.317l-.317-1.65c-.571-1.905-2.413-4-4.444-5.016L6.92 25.809h3.428l5.143-11.428h-2.794l-3.873 7.936z" fill="#fff"/><path d="M0 14.317l.571.127c4.064.953 6.858 3.365 7.937 6.223L7.365 15.27c-.19-.762-.762-.953-1.46-.953H0z" fill="#FFBC00"/><path d="M0 14.317c4.063.953 7.429 3.429 8.508 6.286l-1.08-4.508a1.55 1.55 0 00-1.523-1.206L0 14.317z" fill="#F7981D"/><path d="M0 14.317c4.063.953 7.429 3.429 8.508 6.286l-.762-2.476c-.19-.762-.444-1.524-1.333-1.841L0 14.317z" fill="#ED7C00"/></svg>